<svg width="56" height="99" viewBox="0 0 56 99" fill="none" xmlns="http://www.w3.org/2000/svg">
<path d="M29.7993 91.8405L36.3411 98.3823V55.9594C34.6059 57.769 32.3275 58.9871 29.7993 59.4121V91.8405Z" fill="#EDE0D4"/>
<path d="M27.8101 12.041C19.1125 12.041 12.0366 19.1173 12.0366 27.8144C12.0366 36.5114 19.113 43.5878 27.8101 43.5878C36.5071 43.5878 43.5835 36.5114 43.5835 27.8144C43.5835 19.1173 36.5071 12.041 27.8101 12.041ZM25.5448 34.3124C25.203 34.6542 24.7561 34.8251 24.3047 34.8251C23.8578 34.8251 23.4065 34.6542 23.0647 34.3124L19.5593 30.8071L22.0393 28.3271L24.3046 30.5924L33.5806 21.3165L36.0605 23.7964L25.5448 34.3124Z" fill="#EDE0D4"/>
<path d="M19.2832 98.3868L25.825 91.8451V59.4165C23.2968 58.9915 21.0183 57.769 19.2832 55.9638V98.3868Z" fill="#EDE0D4"/>
<path d="M49.973 20.2565C49.4122 20.0856 48.9565 19.6781 48.7243 19.1348C48.492 18.5959 48.5139 17.9825 48.7768 17.461C49.364 16.2998 49.6576 15.108 49.6576 13.9118C49.6576 9.5302 46.0952 5.96351 41.7136 5.96351C40.5174 5.96351 39.3213 6.26146 38.1644 6.84423C37.6386 7.11151 37.0296 7.12904 36.4906 6.89681C35.9517 6.66897 35.5398 6.20889 35.3689 5.64801C34.3392 2.26977 31.3027 0 27.8105 0C24.3183 0 21.2819 2.26966 20.2521 5.64801C20.0813 6.20887 19.6738 6.66456 19.1304 6.89681C18.5915 7.12466 17.9825 7.11151 17.4566 6.84423C16.2954 6.25708 15.0992 5.96351 13.9074 5.96351C9.52582 5.96351 5.96351 9.5302 5.96351 13.9118C5.96351 15.108 6.26146 16.3042 6.84423 17.461C7.10714 17.9868 7.12904 18.5958 6.89681 19.1348C6.66897 19.6738 6.20889 20.0856 5.64801 20.2565C2.26977 21.2862 0 24.3227 0 27.8149C0 31.3071 2.26966 34.3436 5.64801 35.3733C6.20887 35.5442 6.66456 35.9517 6.89681 36.495C7.12904 37.0339 7.10713 37.6473 6.84423 38.1688C6.25708 39.33 5.96351 40.5218 5.96351 41.718C5.96351 46.0996 9.52582 49.6663 13.9074 49.6663C15.1036 49.6663 16.2998 49.3684 17.4566 48.7856C17.737 48.6454 18.0438 48.5709 18.3505 48.5709C18.6134 48.5709 18.8807 48.6235 19.1304 48.7286C19.6694 48.9564 20.0812 49.4165 20.2521 49.9774C21.2818 53.3556 24.3183 55.6254 27.8105 55.6254C31.3027 55.6254 34.3392 53.3558 35.3689 49.9774C35.5398 49.4165 35.9473 48.9609 36.4906 48.7286C37.034 48.5008 37.6429 48.5183 38.1644 48.7812C39.3256 49.3683 40.5218 49.6619 41.7136 49.6619C46.0952 49.6619 49.6575 46.0952 49.6575 41.7136C49.6575 40.5174 49.3596 39.3212 48.7768 38.1644C48.5139 37.6386 48.492 37.0296 48.7242 36.4906C48.9521 35.9517 49.4122 35.5398 49.973 35.3689C53.3513 34.3392 55.621 31.3027 55.621 27.8105C55.621 24.3183 53.3514 21.2819 49.973 20.2521L49.973 20.2565ZM27.8104 47.0945C17.1804 47.0945 8.5305 38.4451 8.5305 27.8146C8.5305 17.184 17.1799 8.53469 27.8104 8.53469C38.4409 8.53469 47.0903 17.184 47.0903 27.8146C47.0903 38.4451 38.4409 47.0945 27.8104 47.0945Z" fill="#EDE0D4"/>
</svg>
