<svg width="55" height="95" viewBox="0 0 55 95" fill="none" xmlns="http://www.w3.org/2000/svg">
<path d="M0 0V5.48207C0.000421929 11.5581 1.40235 17.5381 4.0789 22.8808C6.75545 28.2236 10.6221 32.7603 15.3289 36.0804C17.0851 37.3198 18.5278 39.0131 19.5264 41.007C20.5249 43.0009 21.0479 45.2326 21.0479 47.5C21.0479 49.7674 20.5249 51.9991 19.5264 53.993C18.5278 55.9869 17.0851 57.6802 15.3289 58.9196C10.6221 62.2397 6.75545 66.7765 4.0789 72.1192C1.40235 77.4619 0.000421663 83.4419 0 89.5179V95H54.0764V89.5179C54.0759 83.4419 52.674 77.4619 49.9975 72.1192C47.3209 66.7765 43.4542 62.2397 38.7474 58.9196C36.9912 57.6802 35.5485 55.9869 34.55 53.993C33.5514 51.9991 33.0285 49.7674 33.0285 47.5C33.0285 45.2326 33.5514 43.0009 34.55 41.007C35.5485 39.0131 36.9912 37.3198 38.7474 36.0804C43.4542 32.7603 47.3209 28.2236 49.9975 22.8808C52.674 17.5381 54.0759 11.5581 54.0764 5.48207V0H0ZM3.9941 4.31818H50.0823V5.48207C50.0814 10.8399 48.8447 16.1129 46.4842 20.8238C44.1237 25.5347 40.7138 29.5349 36.5632 32.4623C34.25 34.0939 32.3497 36.3235 31.0344 38.9493C29.7191 41.575 29.0302 44.5139 29.0302 47.5C29.0302 50.4861 29.7191 53.425 31.0344 56.0507C32.3497 58.6765 34.25 60.9061 36.5632 62.5377C40.7138 65.4651 44.1237 69.4653 46.4842 74.1762C48.8447 78.8871 50.0814 84.1601 50.0823 89.5179V90.6818H3.9941V89.5179C3.99497 84.1601 5.23164 78.8871 7.59217 74.1762C9.9527 69.4653 13.3626 65.4651 17.5132 62.5377C19.8264 60.9061 21.7266 58.6765 23.042 56.0507C24.3573 53.425 25.0461 50.4861 25.0461 47.5C25.0461 44.5139 24.3573 41.575 23.042 38.9493C21.7266 36.3235 19.8264 34.0939 17.5132 32.4623C13.3626 29.5349 9.9527 25.5348 7.59217 20.8238C5.23164 16.1129 3.99497 10.8399 3.9941 5.48207V4.31818Z" fill="#EDE0D4"/>
<path d="M9.16895 19.4326H44.9093C42.7037 23.9839 39.4559 27.8479 35.476 30.656C32.8852 32.484 30.7569 34.9816 29.2838 37.9228C27.8107 40.864 27.0392 44.156 27.0392 47.5007C27.0392 44.1559 26.2677 40.864 24.7946 37.9228C23.3214 34.9816 21.1931 32.484 18.6023 30.656C14.6223 27.8479 11.3745 23.9839 9.16895 19.4326Z" fill="#EDE0D4"/>
<path d="M15.8848 88.5237L27.04 76.4635L38.195 88.5237H15.8848Z" fill="#EDE0D4"/>
</svg>
