<svg width="68" height="90" viewBox="0 0 68 90" fill="none" xmlns="http://www.w3.org/2000/svg">
<path d="M66.0247 46.0601C44.9809 38.1243 37.4435 2.12085 37.4435 2.12085C37.4435 2.12085 29.9054 38.1285 8.8623 46.0601C29.9061 53.9958 37.4435 89.9993 37.4435 89.9993C37.4435 89.9993 44.9816 53.9954 66.0247 46.0601Z" fill="#EDE0D4"/>
<path d="M22.0752 16.9653C13.9496 13.9022 11.039 0 11.039 0C11.039 0 8.12611 13.9028 0 16.9653C8.12555 20.0283 11.039 33.9343 11.039 33.9343C11.039 33.9343 13.9491 20.0287 22.0752 16.9653Z" fill="#EDE0D4"/>
<path d="M61.8138 54.5667C61.8138 54.5667 60.1838 62.3615 55.6299 64.0751C60.1838 65.792 61.8138 73.5835 61.8138 73.5835C61.8138 73.5835 63.4439 65.7924 68.0005 64.0751C63.4467 62.3619 61.8138 54.5667 61.8138 54.5667Z" fill="#EDE0D4"/>
<path d="M51.5509 70.9833C51.5509 70.9833 49.9209 78.7781 45.3643 80.4917C49.9181 82.2087 51.5509 90.0001 51.5509 90.0001C51.5509 90.0001 53.181 82.209 57.7349 80.4917C53.181 78.7748 51.5509 70.9833 51.5509 70.9833Z" fill="#EDE0D4"/>
</svg>
