<svg width="138" height="235" viewBox="0 0 138 235" fill="none" xmlns="http://www.w3.org/2000/svg">
<mask id="path-1-outside-1_76_290" maskUnits="userSpaceOnUse" x="0" y="0" width="138" height="235" fill="black">
<rect fill="white" width="138" height="235"/>
<path d="M102.068 8.83491C104.392 10.2853 106.128 11.8374 107.814 13.3456C110.946 16.146 113.895 18.7823 120.21 19.8756C121.666 20.1277 122.788 20.9401 123.474 21.9453C123.787 22.4022 124.011 22.905 124.138 23.4194C124.271 23.9616 124.297 24.5159 124.206 25.0464C124.048 25.961 123.564 26.7922 122.71 27.3789C122.355 27.623 121.028 27.786 119.008 27.8876C118.998 27.9582 118.982 28.029 118.961 28.0994C117.9 31.725 115.502 35.5615 112.372 38.3359C112.163 38.5208 111.951 38.7009 111.736 38.8763C112.326 47.0493 117.133 50.1221 123.71 54.326C124.788 55.0154 125.908 55.7313 126.827 56.3396C129.84 58.336 132.229 60.4479 133.952 63.4546C135.654 66.4246 136.647 70.1917 136.869 75.4898C136.881 75.7775 136.9 76.1531 136.918 76.5145C137.136 80.8586 137.255 83.2166 132.651 84.5409C135.887 98.4501 136.336 112.523 135.05 126.64C133.72 141.234 130.543 155.846 126.684 170.364C125.67 174.179 124.639 177.886 123.6 181.525C122.603 185.013 121.499 188.779 120.364 192.623C119.889 194.229 119.414 195.834 118.939 197.436C116.698 205.001 114.47 212.521 112.476 219.789C111.869 222.003 111.086 223.812 110.126 225.299C109.128 226.842 107.949 228.032 106.585 228.956C103.866 230.798 97.9596 232.154 91.358 233.01C83.5144 234.028 74.5925 234.374 69 233.991C63.4076 234.374 54.4856 234.028 46.642 233.01C40.0405 232.154 34.1335 230.798 31.4147 228.956C30.0507 228.032 28.8718 226.842 27.8744 225.299C26.9137 223.812 26.1313 222.003 25.524 219.789C23.5304 212.521 21.3023 205.001 19.061 197.436C8.02552 160.191 -3.33259 121.851 5.35032 84.5412C0.745174 83.217 0.863595 80.8589 1.08217 76.5145C1.10035 76.1531 1.11925 75.7775 1.13128 75.4898C1.35279 70.1917 2.34582 66.4246 4.04788 63.4546C5.77095 60.4479 8.1601 58.336 11.1735 56.3396C12.0918 55.7313 13.2116 55.0154 14.2902 54.326C20.8671 50.1221 25.674 47.0493 26.2638 38.8763C26.0487 38.7009 25.8366 38.5208 25.6281 38.3359C22.4978 35.5615 20.0999 31.725 19.0386 28.0994C19.0179 28.029 19.0025 27.9582 18.9918 27.8876C16.9723 27.786 15.6454 27.623 15.2902 27.3789C14.4363 26.7922 13.9518 25.961 13.7942 25.0464C13.7029 24.5159 13.7289 23.9616 13.8624 23.4194C13.9893 22.905 14.2133 22.4022 14.5255 21.9453C15.2125 20.94 16.3338 20.1277 17.7897 19.8756C24.105 18.7823 27.0536 16.146 30.1856 13.3456C31.8724 11.8374 33.6082 10.2853 35.9317 8.83491C44.2994 3.61165 56.6692 1 69 1C81.3308 1 93.7006 3.61165 102.068 8.83491ZM29.2413 40.858C28.0695 49.2779 22.9031 52.5816 15.9897 57.0005C15.0786 57.5829 14.132 58.188 12.9226 58.9892C10.2843 60.7371 8.21584 62.5454 6.78947 65.0345C5.34198 67.5602 4.49325 70.8648 4.29468 75.6143C4.27658 76.0474 4.2607 76.3628 4.24558 76.6638C4.09627 79.6315 4.0224 81.1002 7.5652 81.802C10.7501 82.4329 16.1519 83.0814 25.7024 83.6488C35.3576 84.2223 49.1514 84.7103 69 85.0104C88.8486 84.7103 102.642 84.2223 112.298 83.6488C121.848 83.0814 127.25 82.4329 130.435 81.802C133.978 81.1002 133.904 79.6315 133.754 76.6638C133.739 76.3628 133.723 76.0474 133.705 75.6143C133.507 70.8648 132.658 67.5602 131.211 65.0345C129.784 62.5454 127.716 60.7371 125.077 58.9892C123.868 58.188 122.921 57.5829 122.01 57.0005C115.097 52.5816 109.931 49.2779 108.759 40.858C106.812 41.8797 104.701 42.4763 102.514 42.4574L84.0289 42.2976C83.1554 42.2907 82.4528 41.575 82.4596 40.6991C82.4664 39.8231 83.1802 39.1186 84.0538 39.1255L102.539 39.2853C105.316 39.3092 108.01 37.9677 110.275 35.9599C112.734 33.7805 114.664 30.8469 115.667 27.9931C107.246 28.1439 93.0012 27.7521 82.0127 27.4498C76.3586 27.2942 71.4936 27.481 68.9165 27.4498C66.3394 27.481 61.6414 27.2942 55.9874 27.4498C44.9988 27.7521 30.7538 28.1439 22.3326 27.9931C23.3363 30.8469 25.2657 33.7805 27.7246 35.9599C29.9899 37.9677 32.6839 39.3092 35.4609 39.2853L53.9463 39.1255C54.8198 39.1186 55.5336 39.8231 55.5404 40.6991C55.5472 41.575 54.8447 42.2907 53.9711 42.2976L35.4858 42.4574C33.2987 42.4763 31.1881 41.8797 29.2413 40.858ZM29.1441 18.4026C39.5003 18.4101 52.7917 18.4139 69 18.4139C85.2083 18.4139 98.4997 18.4101 108.856 18.4026C107.752 17.5509 106.737 16.6443 105.705 15.7215C104.114 14.2988 102.477 12.8346 100.394 11.5343C92.544 6.63444 80.7914 4.18453 69 4.18453C57.2086 4.18453 45.456 6.63444 37.6065 11.5343C35.5233 12.8346 33.8857 14.2988 32.2945 15.7215C31.2625 16.6443 30.2484 17.5509 29.1441 18.4026ZM113.686 20.4286C94.4456 20.4475 79.9935 20.4286 69 20.4286C58.0066 20.4286 43.4709 20.4475 24.2308 20.4286C22.7198 21.0217 20.377 22.6548 18.3231 23.0104C17.7849 23.1036 17.3813 23.3879 17.1431 23.7366C17.0439 23.8818 16.975 24.0323 16.939 24.1782C16.9098 24.2964 16.903 24.4102 16.9204 24.5115C16.9367 24.6063 16.9874 24.6928 17.0766 24.7541C17.9046 25.323 39.9222 25.7153 55.5404 25.2857C61.1843 25.1305 66.3387 25.3176 69 25.2857C71.6605 25.3176 76.8128 25.1304 82.4596 25.2857C98.0779 25.7153 120.095 25.323 120.923 24.7541C121.013 24.6928 121.063 24.6063 121.08 24.5115C121.097 24.4102 121.09 24.2964 121.061 24.1782C121.025 24.0323 120.956 23.8818 120.857 23.7366C120.619 23.3879 120.215 23.1036 119.677 23.0104C117.623 22.6548 115.197 21.0217 113.686 20.4286ZM113.637 204.198C109.759 205.416 103.943 206.353 97.5666 207C87.718 208.001 76.4359 208.337 69 207.953C61.5641 208.337 50.282 208.001 40.4334 207C34.057 206.353 28.2406 205.416 24.3625 204.198C25.8008 209.096 27.2163 213.999 28.5758 218.955C29.0918 220.837 29.7418 222.351 30.5292 223.57C31.28 224.731 32.1655 225.626 33.1887 226.319C35.4742 227.867 40.8832 229.065 47.039 229.863C54.713 230.858 63.4409 231.194 68.8675 230.813C68.9476 230.806 69.0291 230.806 69.1117 230.811C74.5368 231.195 83.2773 230.86 90.961 229.863C97.1168 229.065 102.526 227.867 104.811 226.319C105.835 225.626 106.72 224.731 107.471 223.57C108.258 222.351 108.908 220.837 109.424 218.955C110.784 213.999 112.199 209.096 113.637 204.198ZM23.2377 200.382C26.3684 201.897 33.0888 203.063 40.7435 203.841C50.4734 204.829 61.6086 205.16 68.9091 204.778C68.9656 204.775 69.0228 204.774 69.0806 204.777C76.381 205.161 87.5222 204.829 97.2565 203.841C104.911 203.063 111.632 201.897 114.762 200.382C115.141 199.102 115.52 197.822 115.9 196.54C116.375 194.938 116.85 193.333 117.324 191.727C118.366 188.198 119.428 184.573 120.548 180.654C121.624 176.887 122.659 173.172 123.62 169.555C127.444 155.167 130.59 140.715 131.899 126.354C133.157 112.538 132.718 98.7767 129.549 85.1943C126.149 85.7578 120.877 86.3223 112.484 86.8209C102.856 87.3928 89.0223 87.8805 69.0186 88.1827H68.9814C48.9778 87.8805 35.1438 87.3928 25.5163 86.8209C17.1246 86.3224 11.853 85.7579 8.45227 85.1946C-0.0671954 121.717 11.1761 159.671 22.1003 196.541C22.48 197.822 22.8593 199.102 23.2377 200.382ZM118.446 56.6858C119.319 56.6171 120.083 57.2715 120.151 58.1474C120.22 59.0234 119.567 59.7892 118.694 59.8579C114.063 60.2276 108.091 60.5765 99.9866 60.8826C91.9913 61.1846 81.9238 61.4402 69.0186 61.6259H68.9814C56.0762 61.4402 46.0087 61.1846 38.0134 60.8826C29.9095 60.5765 23.9368 60.2276 19.3062 59.8579C18.4326 59.7892 17.7801 59.0234 17.8485 58.1474C17.917 57.2715 18.6808 56.6171 19.5543 56.6858C24.26 57.0615 30.2095 57.4115 38.1251 57.7105C46.1452 58.0134 56.1888 58.269 69 58.4535C81.8112 58.269 91.8548 58.0134 99.875 57.7105C107.791 57.4115 113.74 57.0615 118.446 56.6858Z"/>
</mask>
<path d="M102.068 8.83491C104.392 10.2853 106.128 11.8374 107.814 13.3456C110.946 16.146 113.895 18.7823 120.21 19.8756C121.666 20.1277 122.788 20.9401 123.474 21.9453C123.787 22.4022 124.011 22.905 124.138 23.4194C124.271 23.9616 124.297 24.5159 124.206 25.0464C124.048 25.961 123.564 26.7922 122.71 27.3789C122.355 27.623 121.028 27.786 119.008 27.8876C118.998 27.9582 118.982 28.029 118.961 28.0994C117.9 31.725 115.502 35.5615 112.372 38.3359C112.163 38.5208 111.951 38.7009 111.736 38.8763C112.326 47.0493 117.133 50.1221 123.71 54.326C124.788 55.0154 125.908 55.7313 126.827 56.3396C129.84 58.336 132.229 60.4479 133.952 63.4546C135.654 66.4246 136.647 70.1917 136.869 75.4898C136.881 75.7775 136.9 76.1531 136.918 76.5145C137.136 80.8586 137.255 83.2166 132.651 84.5409C135.887 98.4501 136.336 112.523 135.05 126.64C133.72 141.234 130.543 155.846 126.684 170.364C125.67 174.179 124.639 177.886 123.6 181.525C122.603 185.013 121.499 188.779 120.364 192.623C119.889 194.229 119.414 195.834 118.939 197.436C116.698 205.001 114.47 212.521 112.476 219.789C111.869 222.003 111.086 223.812 110.126 225.299C109.128 226.842 107.949 228.032 106.585 228.956C103.866 230.798 97.9596 232.154 91.358 233.01C83.5144 234.028 74.5925 234.374 69 233.991C63.4076 234.374 54.4856 234.028 46.642 233.01C40.0405 232.154 34.1335 230.798 31.4147 228.956C30.0507 228.032 28.8718 226.842 27.8744 225.299C26.9137 223.812 26.1313 222.003 25.524 219.789C23.5304 212.521 21.3023 205.001 19.061 197.436C8.02552 160.191 -3.33259 121.851 5.35032 84.5412C0.745174 83.217 0.863595 80.8589 1.08217 76.5145C1.10035 76.1531 1.11925 75.7775 1.13128 75.4898C1.35279 70.1917 2.34582 66.4246 4.04788 63.4546C5.77095 60.4479 8.1601 58.336 11.1735 56.3396C12.0918 55.7313 13.2116 55.0154 14.2902 54.326C20.8671 50.1221 25.674 47.0493 26.2638 38.8763C26.0487 38.7009 25.8366 38.5208 25.6281 38.3359C22.4978 35.5615 20.0999 31.725 19.0386 28.0994C19.0179 28.029 19.0025 27.9582 18.9918 27.8876C16.9723 27.786 15.6454 27.623 15.2902 27.3789C14.4363 26.7922 13.9518 25.961 13.7942 25.0464C13.7029 24.5159 13.7289 23.9616 13.8624 23.4194C13.9893 22.905 14.2133 22.4022 14.5255 21.9453C15.2125 20.94 16.3338 20.1277 17.7897 19.8756C24.105 18.7823 27.0536 16.146 30.1856 13.3456C31.8724 11.8374 33.6082 10.2853 35.9317 8.83491C44.2994 3.61165 56.6692 1 69 1C81.3308 1 93.7006 3.61165 102.068 8.83491ZM29.2413 40.858C28.0695 49.2779 22.9031 52.5816 15.9897 57.0005C15.0786 57.5829 14.132 58.188 12.9226 58.9892C10.2843 60.7371 8.21584 62.5454 6.78947 65.0345C5.34198 67.5602 4.49325 70.8648 4.29468 75.6143C4.27658 76.0474 4.2607 76.3628 4.24558 76.6638C4.09627 79.6315 4.0224 81.1002 7.5652 81.802C10.7501 82.4329 16.1519 83.0814 25.7024 83.6488C35.3576 84.2223 49.1514 84.7103 69 85.0104C88.8486 84.7103 102.642 84.2223 112.298 83.6488C121.848 83.0814 127.25 82.4329 130.435 81.802C133.978 81.1002 133.904 79.6315 133.754 76.6638C133.739 76.3628 133.723 76.0474 133.705 75.6143C133.507 70.8648 132.658 67.5602 131.211 65.0345C129.784 62.5454 127.716 60.7371 125.077 58.9892C123.868 58.188 122.921 57.5829 122.01 57.0005C115.097 52.5816 109.931 49.2779 108.759 40.858C106.812 41.8797 104.701 42.4763 102.514 42.4574L84.0289 42.2976C83.1554 42.2907 82.4528 41.575 82.4596 40.6991C82.4664 39.8231 83.1802 39.1186 84.0538 39.1255L102.539 39.2853C105.316 39.3092 108.01 37.9677 110.275 35.9599C112.734 33.7805 114.664 30.8469 115.667 27.9931C107.246 28.1439 93.0012 27.7521 82.0127 27.4498C76.3586 27.2942 71.4936 27.481 68.9165 27.4498C66.3394 27.481 61.6414 27.2942 55.9874 27.4498C44.9988 27.7521 30.7538 28.1439 22.3326 27.9931C23.3363 30.8469 25.2657 33.7805 27.7246 35.9599C29.9899 37.9677 32.6839 39.3092 35.4609 39.2853L53.9463 39.1255C54.8198 39.1186 55.5336 39.8231 55.5404 40.6991C55.5472 41.575 54.8447 42.2907 53.9711 42.2976L35.4858 42.4574C33.2987 42.4763 31.1881 41.8797 29.2413 40.858ZM29.1441 18.4026C39.5003 18.4101 52.7917 18.4139 69 18.4139C85.2083 18.4139 98.4997 18.4101 108.856 18.4026C107.752 17.5509 106.737 16.6443 105.705 15.7215C104.114 14.2988 102.477 12.8346 100.394 11.5343C92.544 6.63444 80.7914 4.18453 69 4.18453C57.2086 4.18453 45.456 6.63444 37.6065 11.5343C35.5233 12.8346 33.8857 14.2988 32.2945 15.7215C31.2625 16.6443 30.2484 17.5509 29.1441 18.4026ZM113.686 20.4286C94.4456 20.4475 79.9935 20.4286 69 20.4286C58.0066 20.4286 43.4709 20.4475 24.2308 20.4286C22.7198 21.0217 20.377 22.6548 18.3231 23.0104C17.7849 23.1036 17.3813 23.3879 17.1431 23.7366C17.0439 23.8818 16.975 24.0323 16.939 24.1782C16.9098 24.2964 16.903 24.4102 16.9204 24.5115C16.9367 24.6063 16.9874 24.6928 17.0766 24.7541C17.9046 25.323 39.9222 25.7153 55.5404 25.2857C61.1843 25.1305 66.3387 25.3176 69 25.2857C71.6605 25.3176 76.8128 25.1304 82.4596 25.2857C98.0779 25.7153 120.095 25.323 120.923 24.7541C121.013 24.6928 121.063 24.6063 121.08 24.5115C121.097 24.4102 121.09 24.2964 121.061 24.1782C121.025 24.0323 120.956 23.8818 120.857 23.7366C120.619 23.3879 120.215 23.1036 119.677 23.0104C117.623 22.6548 115.197 21.0217 113.686 20.4286ZM113.637 204.198C109.759 205.416 103.943 206.353 97.5666 207C87.718 208.001 76.4359 208.337 69 207.953C61.5641 208.337 50.282 208.001 40.4334 207C34.057 206.353 28.2406 205.416 24.3625 204.198C25.8008 209.096 27.2163 213.999 28.5758 218.955C29.0918 220.837 29.7418 222.351 30.5292 223.57C31.28 224.731 32.1655 225.626 33.1887 226.319C35.4742 227.867 40.8832 229.065 47.039 229.863C54.713 230.858 63.4409 231.194 68.8675 230.813C68.9476 230.806 69.0291 230.806 69.1117 230.811C74.5368 231.195 83.2773 230.86 90.961 229.863C97.1168 229.065 102.526 227.867 104.811 226.319C105.835 225.626 106.72 224.731 107.471 223.57C108.258 222.351 108.908 220.837 109.424 218.955C110.784 213.999 112.199 209.096 113.637 204.198ZM23.2377 200.382C26.3684 201.897 33.0888 203.063 40.7435 203.841C50.4734 204.829 61.6086 205.16 68.9091 204.778C68.9656 204.775 69.0228 204.774 69.0806 204.777C76.381 205.161 87.5222 204.829 97.2565 203.841C104.911 203.063 111.632 201.897 114.762 200.382C115.141 199.102 115.52 197.822 115.9 196.54C116.375 194.938 116.85 193.333 117.324 191.727C118.366 188.198 119.428 184.573 120.548 180.654C121.624 176.887 122.659 173.172 123.62 169.555C127.444 155.167 130.59 140.715 131.899 126.354C133.157 112.538 132.718 98.7767 129.549 85.1943C126.149 85.7578 120.877 86.3223 112.484 86.8209C102.856 87.3928 89.0223 87.8805 69.0186 88.1827H68.9814C48.9778 87.8805 35.1438 87.3928 25.5163 86.8209C17.1246 86.3224 11.853 85.7579 8.45227 85.1946C-0.0671954 121.717 11.1761 159.671 22.1003 196.541C22.48 197.822 22.8593 199.102 23.2377 200.382ZM118.446 56.6858C119.319 56.6171 120.083 57.2715 120.151 58.1474C120.22 59.0234 119.567 59.7892 118.694 59.8579C114.063 60.2276 108.091 60.5765 99.9866 60.8826C91.9913 61.1846 81.9238 61.4402 69.0186 61.6259H68.9814C56.0762 61.4402 46.0087 61.1846 38.0134 60.8826C29.9095 60.5765 23.9368 60.2276 19.3062 59.8579C18.4326 59.7892 17.7801 59.0234 17.8485 58.1474C17.917 57.2715 18.6808 56.6171 19.5543 56.6858C24.26 57.0615 30.2095 57.4115 38.1251 57.7105C46.1452 58.0134 56.1888 58.269 69 58.4535C81.8112 58.269 91.8548 58.0134 99.875 57.7105C107.791 57.4115 113.74 57.0615 118.446 56.6858Z" fill="#93684B"/>
<path d="M102.068 8.83491C104.392 10.2853 106.128 11.8374 107.814 13.3456C110.946 16.146 113.895 18.7823 120.21 19.8756C121.666 20.1277 122.788 20.9401 123.474 21.9453C123.787 22.4022 124.011 22.905 124.138 23.4194C124.271 23.9616 124.297 24.5159 124.206 25.0464C124.048 25.961 123.564 26.7922 122.71 27.3789C122.355 27.623 121.028 27.786 119.008 27.8876C118.998 27.9582 118.982 28.029 118.961 28.0994C117.9 31.725 115.502 35.5615 112.372 38.3359C112.163 38.5208 111.951 38.7009 111.736 38.8763C112.326 47.0493 117.133 50.1221 123.71 54.326C124.788 55.0154 125.908 55.7313 126.827 56.3396C129.84 58.336 132.229 60.4479 133.952 63.4546C135.654 66.4246 136.647 70.1917 136.869 75.4898C136.881 75.7775 136.9 76.1531 136.918 76.5145C137.136 80.8586 137.255 83.2166 132.651 84.5409C135.887 98.4501 136.336 112.523 135.05 126.64C133.72 141.234 130.543 155.846 126.684 170.364C125.67 174.179 124.639 177.886 123.6 181.525C122.603 185.013 121.499 188.779 120.364 192.623C119.889 194.229 119.414 195.834 118.939 197.436C116.698 205.001 114.47 212.521 112.476 219.789C111.869 222.003 111.086 223.812 110.126 225.299C109.128 226.842 107.949 228.032 106.585 228.956C103.866 230.798 97.9596 232.154 91.358 233.01C83.5144 234.028 74.5925 234.374 69 233.991C63.4076 234.374 54.4856 234.028 46.642 233.01C40.0405 232.154 34.1335 230.798 31.4147 228.956C30.0507 228.032 28.8718 226.842 27.8744 225.299C26.9137 223.812 26.1313 222.003 25.524 219.789C23.5304 212.521 21.3023 205.001 19.061 197.436C8.02552 160.191 -3.33259 121.851 5.35032 84.5412C0.745174 83.217 0.863595 80.8589 1.08217 76.5145C1.10035 76.1531 1.11925 75.7775 1.13128 75.4898C1.35279 70.1917 2.34582 66.4246 4.04788 63.4546C5.77095 60.4479 8.1601 58.336 11.1735 56.3396C12.0918 55.7313 13.2116 55.0154 14.2902 54.326C20.8671 50.1221 25.674 47.0493 26.2638 38.8763C26.0487 38.7009 25.8366 38.5208 25.6281 38.3359C22.4978 35.5615 20.0999 31.725 19.0386 28.0994C19.0179 28.029 19.0025 27.9582 18.9918 27.8876C16.9723 27.786 15.6454 27.623 15.2902 27.3789C14.4363 26.7922 13.9518 25.961 13.7942 25.0464C13.7029 24.5159 13.7289 23.9616 13.8624 23.4194C13.9893 22.905 14.2133 22.4022 14.5255 21.9453C15.2125 20.94 16.3338 20.1277 17.7897 19.8756C24.105 18.7823 27.0536 16.146 30.1856 13.3456C31.8724 11.8374 33.6082 10.2853 35.9317 8.83491C44.2994 3.61165 56.6692 1 69 1C81.3308 1 93.7006 3.61165 102.068 8.83491ZM29.2413 40.858C28.0695 49.2779 22.9031 52.5816 15.9897 57.0005C15.0786 57.5829 14.132 58.188 12.9226 58.9892C10.2843 60.7371 8.21584 62.5454 6.78947 65.0345C5.34198 67.5602 4.49325 70.8648 4.29468 75.6143C4.27658 76.0474 4.2607 76.3628 4.24558 76.6638C4.09627 79.6315 4.0224 81.1002 7.5652 81.802C10.7501 82.4329 16.1519 83.0814 25.7024 83.6488C35.3576 84.2223 49.1514 84.7103 69 85.0104C88.8486 84.7103 102.642 84.2223 112.298 83.6488C121.848 83.0814 127.25 82.4329 130.435 81.802C133.978 81.1002 133.904 79.6315 133.754 76.6638C133.739 76.3628 133.723 76.0474 133.705 75.6143C133.507 70.8648 132.658 67.5602 131.211 65.0345C129.784 62.5454 127.716 60.7371 125.077 58.9892C123.868 58.188 122.921 57.5829 122.01 57.0005C115.097 52.5816 109.931 49.2779 108.759 40.858C106.812 41.8797 104.701 42.4763 102.514 42.4574L84.0289 42.2976C83.1554 42.2907 82.4528 41.575 82.4596 40.6991C82.4664 39.8231 83.1802 39.1186 84.0538 39.1255L102.539 39.2853C105.316 39.3092 108.01 37.9677 110.275 35.9599C112.734 33.7805 114.664 30.8469 115.667 27.9931C107.246 28.1439 93.0012 27.7521 82.0127 27.4498C76.3586 27.2942 71.4936 27.481 68.9165 27.4498C66.3394 27.481 61.6414 27.2942 55.9874 27.4498C44.9988 27.7521 30.7538 28.1439 22.3326 27.9931C23.3363 30.8469 25.2657 33.7805 27.7246 35.9599C29.9899 37.9677 32.6839 39.3092 35.4609 39.2853L53.9463 39.1255C54.8198 39.1186 55.5336 39.8231 55.5404 40.6991C55.5472 41.575 54.8447 42.2907 53.9711 42.2976L35.4858 42.4574C33.2987 42.4763 31.1881 41.8797 29.2413 40.858ZM29.1441 18.4026C39.5003 18.4101 52.7917 18.4139 69 18.4139C85.2083 18.4139 98.4997 18.4101 108.856 18.4026C107.752 17.5509 106.737 16.6443 105.705 15.7215C104.114 14.2988 102.477 12.8346 100.394 11.5343C92.544 6.63444 80.7914 4.18453 69 4.18453C57.2086 4.18453 45.456 6.63444 37.6065 11.5343C35.5233 12.8346 33.8857 14.2988 32.2945 15.7215C31.2625 16.6443 30.2484 17.5509 29.1441 18.4026ZM113.686 20.4286C94.4456 20.4475 79.9935 20.4286 69 20.4286C58.0066 20.4286 43.4709 20.4475 24.2308 20.4286C22.7198 21.0217 20.377 22.6548 18.3231 23.0104C17.7849 23.1036 17.3813 23.3879 17.1431 23.7366C17.0439 23.8818 16.975 24.0323 16.939 24.1782C16.9098 24.2964 16.903 24.4102 16.9204 24.5115C16.9367 24.6063 16.9874 24.6928 17.0766 24.7541C17.9046 25.323 39.9222 25.7153 55.5404 25.2857C61.1843 25.1305 66.3387 25.3176 69 25.2857C71.6605 25.3176 76.8128 25.1304 82.4596 25.2857C98.0779 25.7153 120.095 25.323 120.923 24.7541C121.013 24.6928 121.063 24.6063 121.08 24.5115C121.097 24.4102 121.09 24.2964 121.061 24.1782C121.025 24.0323 120.956 23.8818 120.857 23.7366C120.619 23.3879 120.215 23.1036 119.677 23.0104C117.623 22.6548 115.197 21.0217 113.686 20.4286ZM113.637 204.198C109.759 205.416 103.943 206.353 97.5666 207C87.718 208.001 76.4359 208.337 69 207.953C61.5641 208.337 50.282 208.001 40.4334 207C34.057 206.353 28.2406 205.416 24.3625 204.198C25.8008 209.096 27.2163 213.999 28.5758 218.955C29.0918 220.837 29.7418 222.351 30.5292 223.57C31.28 224.731 32.1655 225.626 33.1887 226.319C35.4742 227.867 40.8832 229.065 47.039 229.863C54.713 230.858 63.4409 231.194 68.8675 230.813C68.9476 230.806 69.0291 230.806 69.1117 230.811C74.5368 231.195 83.2773 230.86 90.961 229.863C97.1168 229.065 102.526 227.867 104.811 226.319C105.835 225.626 106.72 224.731 107.471 223.57C108.258 222.351 108.908 220.837 109.424 218.955C110.784 213.999 112.199 209.096 113.637 204.198ZM23.2377 200.382C26.3684 201.897 33.0888 203.063 40.7435 203.841C50.4734 204.829 61.6086 205.16 68.9091 204.778C68.9656 204.775 69.0228 204.774 69.0806 204.777C76.381 205.161 87.5222 204.829 97.2565 203.841C104.911 203.063 111.632 201.897 114.762 200.382C115.141 199.102 115.52 197.822 115.9 196.54C116.375 194.938 116.85 193.333 117.324 191.727C118.366 188.198 119.428 184.573 120.548 180.654C121.624 176.887 122.659 173.172 123.62 169.555C127.444 155.167 130.59 140.715 131.899 126.354C133.157 112.538 132.718 98.7767 129.549 85.1943C126.149 85.7578 120.877 86.3223 112.484 86.8209C102.856 87.3928 89.0223 87.8805 69.0186 88.1827H68.9814C48.9778 87.8805 35.1438 87.3928 25.5163 86.8209C17.1246 86.3224 11.853 85.7579 8.45227 85.1946C-0.0671954 121.717 11.1761 159.671 22.1003 196.541C22.48 197.822 22.8593 199.102 23.2377 200.382ZM118.446 56.6858C119.319 56.6171 120.083 57.2715 120.151 58.1474C120.22 59.0234 119.567 59.7892 118.694 59.8579C114.063 60.2276 108.091 60.5765 99.9866 60.8826C91.9913 61.1846 81.9238 61.4402 69.0186 61.6259H68.9814C56.0762 61.4402 46.0087 61.1846 38.0134 60.8826C29.9095 60.5765 23.9368 60.2276 19.3062 59.8579C18.4326 59.7892 17.7801 59.0234 17.8485 58.1474C17.917 57.2715 18.6808 56.6171 19.5543 56.6858C24.26 57.0615 30.2095 57.4115 38.1251 57.7105C46.1452 58.0134 56.1888 58.269 69 58.4535C81.8112 58.269 91.8548 58.0134 99.875 57.7105C107.791 57.4115 113.74 57.0615 118.446 56.6858Z" stroke="#93684B" stroke-width="0.8" mask="url(#path-1-outside-1_76_290)"/>
</svg>
