<svg width="128" height="104" viewBox="0 0 128 104" fill="none" xmlns="http://www.w3.org/2000/svg">
<g filter="url(#filter0_dd_125_137)">
<path d="M32.0635 38.2656C32.0635 35.4896 32.859 33.3483 34.4502 31.8418C36.0413 30.3184 38.0387 29.5566 40.4424 29.5566C42.626 29.5566 44.3525 30.0983 45.6221 31.1816C46.8916 32.265 47.5264 33.5599 47.5264 35.0664H45.0635C45.0635 34.1862 44.6488 33.3652 43.8193 32.6035C43.0068 31.8418 41.8896 31.4609 40.4678 31.4609C38.8089 31.4609 37.3786 32.0703 36.1768 33.2891C34.9749 34.4909 34.374 36.1497 34.374 38.2656C34.374 40.4154 34.9665 42.1335 36.1514 43.4199C37.3532 44.7064 38.792 45.3496 40.4678 45.3496C42.0081 45.3496 43.2692 44.8841 44.251 43.9531C45.2327 43.0052 45.8083 41.778 45.9775 40.2715H40.0615V38.2402H48.3135V39.459C48.3135 41.778 47.5856 43.6569 46.1299 45.0957C44.6911 46.5345 42.7952 47.2539 40.4424 47.2539C38.0049 47.2539 35.999 46.4583 34.4248 44.8672C32.8506 43.276 32.0635 41.0755 32.0635 38.2656ZM52.7568 38.3672H55.8545C57.2425 38.3503 58.3597 38.0879 59.2061 37.5801C60.0524 37.0723 60.4756 36.2852 60.4756 35.2188C60.4756 34.0508 60.0355 33.196 59.1553 32.6543C58.292 32.1126 57.124 31.8418 55.6514 31.8418H52.7568V38.3672ZM50.5986 47V29.8105H55.6768C57.8942 29.8105 59.6292 30.2591 60.8818 31.1562C62.1514 32.0534 62.7861 33.4076 62.7861 35.2188C62.7861 37.724 61.4743 39.332 58.8506 40.043L62.7861 47H60.2217L56.4639 40.373C56.2946 40.39 56.0322 40.3984 55.6768 40.3984H52.7568V47H50.5986ZM64.3096 29.8105H66.8486L72.2314 38.4434L77.6396 29.8105H80.0518L73.3232 40.1191V47H71.165V40.1953L64.3096 29.8105ZM82.3369 47V29.8105H84.6221L94.0166 43.8008V29.8105H96.1748V47H93.8896L84.4951 33.0352V47H82.3369ZM33.9678 65.3984V54.8105H36.126V65.3984C36.126 67.2435 36.4984 68.5299 37.2432 69.2578C37.988 69.9688 39.0374 70.3242 40.3916 70.3242C41.7458 70.3242 42.7952 69.9688 43.54 69.2578C44.2848 68.5299 44.6572 67.2435 44.6572 65.3984V54.8105H46.8154V65.3984C46.8154 67.7852 46.2314 69.5286 45.0635 70.6289C43.9124 71.7122 42.3467 72.2539 40.3662 72.2539C38.4027 72.2539 36.8454 71.7122 35.6943 70.6289C34.5433 69.5286 33.9678 67.7852 33.9678 65.3984ZM52.2744 63.3672H55.3721C56.7601 63.3503 57.8773 63.0879 58.7236 62.5801C59.57 62.0723 59.9932 61.2852 59.9932 60.2188C59.9932 59.0508 59.5531 58.196 58.6729 57.6543C57.8096 57.1126 56.6416 56.8418 55.1689 56.8418H52.2744V63.3672ZM50.1162 72V54.8105H55.1943C57.4118 54.8105 59.1468 55.2591 60.3994 56.1562C61.6689 57.0534 62.3037 58.4076 62.3037 60.2188C62.3037 62.724 60.9919 64.332 58.3682 65.043L62.3037 72H59.7393L55.9814 65.373C55.8122 65.39 55.5498 65.3984 55.1943 65.3984H52.2744V72H50.1162ZM65.0967 72V54.8105H67.3818L76.7764 68.8008V54.8105H78.9346V72H76.6494L67.2549 58.0352V72H65.0967ZM81.7275 66.5918H83.9873C83.9873 67.6582 84.402 68.5553 85.2314 69.2832C86.0609 69.9941 87.2796 70.3496 88.8877 70.3496C90.2757 70.3496 91.3506 70.0872 92.1123 69.5625C92.874 69.0208 93.2549 68.2676 93.2549 67.3027C93.2549 66.6764 93.0518 66.1686 92.6455 65.7793C92.2562 65.373 91.7399 65.0853 91.0967 64.916C90.4535 64.7298 89.7425 64.5775 88.9639 64.459C88.2021 64.3236 87.432 64.1628 86.6533 63.9766C85.8747 63.7904 85.1637 63.5449 84.5205 63.2402C83.8773 62.9355 83.3525 62.4616 82.9463 61.8184C82.557 61.1582 82.3623 60.3457 82.3623 59.3809C82.3623 57.9759 82.904 56.8249 83.9873 55.9277C85.0876 55.0137 86.5856 54.5566 88.4814 54.5566C89.7002 54.5566 90.7412 54.7174 91.6045 55.0391C92.4678 55.3607 93.1279 55.8008 93.585 56.3594C94.042 56.901 94.3636 57.485 94.5498 58.1113C94.7529 58.7207 94.8545 59.3809 94.8545 60.0918H92.5947C92.5947 57.6712 91.2236 56.4609 88.4814 56.4609C87.3135 56.4609 86.3825 56.7148 85.6885 57.2227C84.9945 57.7135 84.6475 58.4329 84.6475 59.3809C84.6475 60.0918 84.8421 60.6673 85.2314 61.1074C85.6377 61.5475 86.1624 61.8691 86.8057 62.0723C87.4489 62.2585 88.1598 62.4108 88.9385 62.5293C89.7171 62.6478 90.4873 62.7917 91.249 62.9609C92.0277 63.1302 92.7386 63.3587 93.3818 63.6465C94.0251 63.9342 94.5413 64.3828 94.9307 64.9922C95.3369 65.6016 95.54 66.3717 95.54 67.3027C95.54 68.8092 94.9391 70.0111 93.7373 70.9082C92.5355 71.8053 90.9189 72.2539 88.8877 72.2539C87.6351 72.2539 86.5264 72.0846 85.5615 71.7461C84.6136 71.4076 83.8688 70.959 83.3271 70.4004C82.7855 69.8418 82.3792 69.2409 82.1084 68.5977C81.8545 67.9544 81.7275 67.2858 81.7275 66.5918Z" fill="#EDE0D4"/>
</g>
<mask id="path-2-outside-1_125_137" maskUnits="userSpaceOnUse" x="0" y="28" width="27" height="45" fill="black">
<rect fill="white" y="28" width="27" height="45"/>
<path d="M19.6407 30.445C20.0692 30.7125 20.3894 30.9988 20.7005 31.277C21.2781 31.7935 21.8219 32.2797 22.9867 32.4814C23.2552 32.5278 23.462 32.6777 23.5887 32.8631C23.6463 32.9474 23.6877 33.0401 23.711 33.135C23.7357 33.235 23.7405 33.3372 23.7236 33.435C23.6946 33.6037 23.6052 33.757 23.4477 33.8652C23.3822 33.9102 23.1375 33.9403 22.765 33.959C22.763 33.9721 22.7602 33.9851 22.7564 33.9981C22.5606 34.6668 22.1184 35.3744 21.541 35.8861C21.5026 35.9202 21.4635 35.9534 21.4238 35.9858C21.5326 37.4932 22.4191 38.0599 23.6321 38.8352C23.8311 38.9624 24.0376 39.0944 24.207 39.2066C24.7628 39.5748 25.2034 39.9643 25.5212 40.5189C25.8351 41.0667 26.0183 41.7614 26.0591 42.7386C26.0613 42.7917 26.0648 42.861 26.0682 42.9276C26.1085 43.7288 26.1303 44.1637 25.2812 44.408C25.8781 46.9733 25.9608 49.5688 25.7236 52.1727C25.4784 54.8642 24.8924 57.5592 24.1807 60.2368C23.9937 60.9405 23.8035 61.6242 23.6118 62.2953C23.428 62.9386 23.2243 63.6333 23.015 64.3422C22.9275 64.6384 22.8398 64.9344 22.7523 65.2299C22.3389 66.6252 21.9279 68.0121 21.5602 69.3526C21.4482 69.7609 21.3039 70.0947 21.1267 70.3688C20.9428 70.6534 20.7253 70.873 20.4738 71.0434C19.9723 71.383 18.8829 71.6332 17.6653 71.7911C16.2187 71.9788 14.5731 72.0426 13.5417 71.972C12.5102 72.0426 10.8647 71.9788 9.41804 71.7911C8.20048 71.6332 7.11102 71.383 6.60957 71.0434C6.35801 70.873 6.14058 70.6534 5.95661 70.3688C5.77943 70.0947 5.63512 69.7609 5.52312 69.3526C5.15542 68.0121 4.74449 66.6252 4.3311 65.23C2.29576 58.3606 0.200913 51.2893 1.80236 44.408C0.953001 44.1638 0.974842 43.7289 1.01515 42.9276C1.01851 42.861 1.02199 42.7917 1.02421 42.7386C1.06507 41.7614 1.24822 41.0667 1.56214 40.5189C1.87994 39.9643 2.32058 39.5748 2.87636 39.2066C3.04573 39.0944 3.25226 38.9624 3.4512 38.8352C4.66421 38.0599 5.55077 37.4932 5.65956 35.9858C5.61988 35.9534 5.58078 35.9202 5.54231 35.8861C4.96498 35.3744 4.52271 34.6668 4.32697 33.9981C4.32316 33.9851 4.32031 33.9721 4.31834 33.959C3.94588 33.9403 3.70115 33.9102 3.63564 33.8652C3.47815 33.757 3.38877 33.6037 3.35972 33.435C3.34288 33.3372 3.34766 33.235 3.3723 33.135C3.39569 33.0401 3.43701 32.9473 3.4946 32.8631C3.62129 32.6777 3.8281 32.5278 4.09662 32.4814C5.2614 32.2797 5.80523 31.7935 6.38288 31.277C6.69398 30.9988 7.01414 30.7125 7.44267 30.445C8.98597 29.4817 11.2674 29 13.5417 29C15.8159 29 18.0974 29.4817 19.6407 30.445ZM6.20873 36.3513C5.99259 37.9042 5.03972 38.5135 3.76465 39.3285C3.5966 39.4359 3.42202 39.5475 3.19897 39.6953C2.71236 40.0177 2.33086 40.3512 2.06779 40.8103C1.80082 41.2761 1.64428 41.8856 1.60766 42.7616C1.60432 42.8415 1.60139 42.8996 1.5986 42.9552C1.57107 43.5025 1.55744 43.7734 2.21086 43.9028C2.79827 44.0192 3.79456 44.1388 5.55602 44.2434C7.33678 44.3492 9.88087 44.4392 13.5417 44.4946C17.2025 44.4392 19.7466 44.3492 21.5273 44.2434C23.2888 44.1388 24.2851 44.0192 24.8725 43.9028C25.5259 43.7734 25.5123 43.5025 25.4847 42.9552C25.4819 42.8996 25.479 42.8415 25.4757 42.7616C25.4391 41.8856 25.2825 41.2761 25.0155 40.8103C24.7525 40.3512 24.371 40.0177 23.8844 39.6953C23.6613 39.5475 23.4867 39.4359 23.3187 39.3285C22.0436 38.5135 21.0907 37.9042 20.8746 36.3513C20.5155 36.5397 20.1263 36.6497 19.7229 36.6462L16.3135 36.6168C16.1524 36.6155 16.0228 36.4835 16.0241 36.3219C16.0254 36.1604 16.157 36.0305 16.3181 36.0317L19.7275 36.0612C20.2397 36.0656 20.7366 35.8182 21.1544 35.4479C21.6079 35.0459 21.9637 34.5049 22.1488 33.9785C20.5957 34.0063 17.9684 33.9341 15.9417 33.8783C14.8989 33.8496 14.0016 33.8841 13.5263 33.8783C13.051 33.8841 12.1845 33.8496 11.1417 33.8783C9.11498 33.9341 6.48768 34.0063 4.9345 33.9785C5.11962 34.5049 5.47547 35.0459 5.92898 35.4479C6.34678 35.8182 6.84365 36.0656 7.35584 36.0612L10.7652 36.0317C10.9263 36.0305 11.058 36.1604 11.0592 36.3219C11.0605 36.4835 10.9309 36.6155 10.7698 36.6168L7.36043 36.6462C6.95704 36.6497 6.56779 36.5397 6.20873 36.3513ZM6.1908 32.2097C8.10085 32.2111 10.5523 32.2118 13.5417 32.2118C16.5311 32.2118 18.9825 32.2111 20.8925 32.2097C20.6889 32.0526 20.5018 31.8854 20.3115 31.7152C20.018 31.4528 19.716 31.1827 19.3318 30.9429C17.884 30.0392 15.7164 29.5873 13.5417 29.5873C11.3669 29.5873 9.1993 30.0392 7.75156 30.9429C7.36735 31.1827 7.06532 31.4528 6.77185 31.7152C6.58151 31.8854 6.39447 32.0526 6.1908 32.2097ZM21.7833 32.5833C18.2348 32.5868 15.5693 32.5833 13.5417 32.5833C11.5141 32.5833 8.83317 32.5868 5.2846 32.5833C5.00593 32.6927 4.57382 32.9939 4.19501 33.0595C4.09575 33.0767 4.02131 33.1291 3.97738 33.1934C3.95907 33.2202 3.94636 33.248 3.93973 33.2749C3.93435 33.2967 3.93309 33.3177 3.9363 33.3364C3.93931 33.3539 3.94865 33.3698 3.96511 33.3811C4.11783 33.486 8.17866 33.5584 11.0592 33.4792C12.1002 33.4505 13.0508 33.4851 13.5417 33.4792C14.0324 33.485 14.9826 33.4505 16.0241 33.4792C18.9047 33.5584 22.9655 33.486 23.1182 33.3811C23.1347 33.3698 23.144 33.3539 23.147 33.3364C23.1502 33.3177 23.149 33.2967 23.1436 33.2749C23.137 33.248 23.1243 33.2202 23.106 33.1935C23.062 33.1291 22.9876 33.0767 22.8883 33.0595C22.5095 32.9939 22.062 32.6927 21.7833 32.5833ZM21.7744 66.4771C21.0592 66.7017 19.9864 66.8745 18.8104 66.9939C16.9939 67.1785 14.9131 67.2405 13.5417 67.1697C12.1702 67.2405 10.0894 67.1785 8.27295 66.9939C7.09691 66.8745 6.02416 66.7017 5.3089 66.4771C5.57417 67.3804 5.83523 68.2847 6.08598 69.1989C6.18115 69.5459 6.30102 69.8252 6.44626 70.0499C6.58472 70.2641 6.74805 70.4292 6.93676 70.557C7.35828 70.8425 8.35591 71.0634 9.49126 71.2107C10.9066 71.3942 12.5164 71.4562 13.5172 71.3858C13.532 71.3846 13.547 71.3845 13.5623 71.3856C14.5628 71.4563 16.1749 71.3945 17.5921 71.2107C18.7274 71.0634 19.7251 70.8425 20.1466 70.557C20.3353 70.4292 20.4986 70.2641 20.6371 70.0499C20.7823 69.8252 20.9022 69.5459 20.9974 69.1989C21.2481 68.2848 21.5092 67.3804 21.7744 66.4771ZM5.10143 65.7733C5.67885 66.0527 6.91833 66.2678 8.33014 66.4112C10.1247 66.5935 12.1784 66.6546 13.5249 66.584C13.5353 66.5834 13.5459 66.5834 13.5565 66.5839C14.903 66.6546 16.9578 66.5935 18.7532 66.4112C20.165 66.2678 21.4045 66.0527 21.9819 65.7733C22.0517 65.5372 22.1217 65.3011 22.1917 65.0647C22.2793 64.7692 22.367 64.4732 22.4544 64.177C22.6466 63.5261 22.8425 62.8575 23.0489 62.1347C23.2474 61.4399 23.4383 60.7547 23.6156 60.0877C24.3209 57.434 24.9012 54.7685 25.1424 52.1199C25.3746 49.5716 25.2937 47.0336 24.7092 44.5285C24.082 44.6324 23.1096 44.7365 21.5616 44.8285C19.786 44.934 17.2345 45.0239 13.5451 45.0797H13.5382C9.84884 45.0239 7.29735 44.934 5.52169 44.8285C3.97395 44.7365 3.00168 44.6324 2.37447 44.5285C0.80317 51.2645 2.87684 58.2647 4.89166 65.0648C4.96169 65.3011 5.03165 65.5373 5.10143 65.7733ZM22.6613 39.2705C22.8224 39.2578 22.9632 39.3785 22.9759 39.5401C22.9885 39.7016 22.8681 39.8429 22.707 39.8555C21.853 39.9237 20.7514 39.9881 19.2567 40.0445C17.7821 40.1002 15.9253 40.1474 13.5451 40.1816H13.5382C11.1581 40.1474 9.30124 40.1002 7.82662 40.0445C6.33196 39.9881 5.23037 39.9237 4.37632 39.8555C4.21521 39.8429 4.09485 39.7016 4.10748 39.5401C4.12011 39.3785 4.26097 39.2578 4.42209 39.2705C5.28998 39.3398 6.38729 39.4043 7.84721 39.4595C9.32642 39.5153 11.1788 39.5625 13.5417 39.5965C15.9045 39.5625 17.7569 39.5153 19.2361 39.4595C20.696 39.4043 21.7934 39.3398 22.6613 39.2705Z"/>
</mask>
<path d="M19.6407 30.445C20.0692 30.7125 20.3894 30.9988 20.7005 31.277C21.2781 31.7935 21.8219 32.2797 22.9867 32.4814C23.2552 32.5278 23.462 32.6777 23.5887 32.8631C23.6463 32.9474 23.6877 33.0401 23.711 33.135C23.7357 33.235 23.7405 33.3372 23.7236 33.435C23.6946 33.6037 23.6052 33.757 23.4477 33.8652C23.3822 33.9102 23.1375 33.9403 22.765 33.959C22.763 33.9721 22.7602 33.9851 22.7564 33.9981C22.5606 34.6668 22.1184 35.3744 21.541 35.8861C21.5026 35.9202 21.4635 35.9534 21.4238 35.9858C21.5326 37.4932 22.4191 38.0599 23.6321 38.8352C23.8311 38.9624 24.0376 39.0944 24.207 39.2066C24.7628 39.5748 25.2034 39.9643 25.5212 40.5189C25.8351 41.0667 26.0183 41.7614 26.0591 42.7386C26.0613 42.7917 26.0648 42.861 26.0682 42.9276C26.1085 43.7288 26.1303 44.1637 25.2812 44.408C25.8781 46.9733 25.9608 49.5688 25.7236 52.1727C25.4784 54.8642 24.8924 57.5592 24.1807 60.2368C23.9937 60.9405 23.8035 61.6242 23.6118 62.2953C23.428 62.9386 23.2243 63.6333 23.015 64.3422C22.9275 64.6384 22.8398 64.9344 22.7523 65.2299C22.3389 66.6252 21.9279 68.0121 21.5602 69.3526C21.4482 69.7609 21.3039 70.0947 21.1267 70.3688C20.9428 70.6534 20.7253 70.873 20.4738 71.0434C19.9723 71.383 18.8829 71.6332 17.6653 71.7911C16.2187 71.9788 14.5731 72.0426 13.5417 71.972C12.5102 72.0426 10.8647 71.9788 9.41804 71.7911C8.20048 71.6332 7.11102 71.383 6.60957 71.0434C6.35801 70.873 6.14058 70.6534 5.95661 70.3688C5.77943 70.0947 5.63512 69.7609 5.52312 69.3526C5.15542 68.0121 4.74449 66.6252 4.3311 65.23C2.29576 58.3606 0.200913 51.2893 1.80236 44.408C0.953001 44.1638 0.974842 43.7289 1.01515 42.9276C1.01851 42.861 1.02199 42.7917 1.02421 42.7386C1.06507 41.7614 1.24822 41.0667 1.56214 40.5189C1.87994 39.9643 2.32058 39.5748 2.87636 39.2066C3.04573 39.0944 3.25226 38.9624 3.4512 38.8352C4.66421 38.0599 5.55077 37.4932 5.65956 35.9858C5.61988 35.9534 5.58078 35.9202 5.54231 35.8861C4.96498 35.3744 4.52271 34.6668 4.32697 33.9981C4.32316 33.9851 4.32031 33.9721 4.31834 33.959C3.94588 33.9403 3.70115 33.9102 3.63564 33.8652C3.47815 33.757 3.38877 33.6037 3.35972 33.435C3.34288 33.3372 3.34766 33.235 3.3723 33.135C3.39569 33.0401 3.43701 32.9473 3.4946 32.8631C3.62129 32.6777 3.8281 32.5278 4.09662 32.4814C5.2614 32.2797 5.80523 31.7935 6.38288 31.277C6.69398 30.9988 7.01414 30.7125 7.44267 30.445C8.98597 29.4817 11.2674 29 13.5417 29C15.8159 29 18.0974 29.4817 19.6407 30.445ZM6.20873 36.3513C5.99259 37.9042 5.03972 38.5135 3.76465 39.3285C3.5966 39.4359 3.42202 39.5475 3.19897 39.6953C2.71236 40.0177 2.33086 40.3512 2.06779 40.8103C1.80082 41.2761 1.64428 41.8856 1.60766 42.7616C1.60432 42.8415 1.60139 42.8996 1.5986 42.9552C1.57107 43.5025 1.55744 43.7734 2.21086 43.9028C2.79827 44.0192 3.79456 44.1388 5.55602 44.2434C7.33678 44.3492 9.88087 44.4392 13.5417 44.4946C17.2025 44.4392 19.7466 44.3492 21.5273 44.2434C23.2888 44.1388 24.2851 44.0192 24.8725 43.9028C25.5259 43.7734 25.5123 43.5025 25.4847 42.9552C25.4819 42.8996 25.479 42.8415 25.4757 42.7616C25.4391 41.8856 25.2825 41.2761 25.0155 40.8103C24.7525 40.3512 24.371 40.0177 23.8844 39.6953C23.6613 39.5475 23.4867 39.4359 23.3187 39.3285C22.0436 38.5135 21.0907 37.9042 20.8746 36.3513C20.5155 36.5397 20.1263 36.6497 19.7229 36.6462L16.3135 36.6168C16.1524 36.6155 16.0228 36.4835 16.0241 36.3219C16.0254 36.1604 16.157 36.0305 16.3181 36.0317L19.7275 36.0612C20.2397 36.0656 20.7366 35.8182 21.1544 35.4479C21.6079 35.0459 21.9637 34.5049 22.1488 33.9785C20.5957 34.0063 17.9684 33.9341 15.9417 33.8783C14.8989 33.8496 14.0016 33.8841 13.5263 33.8783C13.051 33.8841 12.1845 33.8496 11.1417 33.8783C9.11498 33.9341 6.48768 34.0063 4.9345 33.9785C5.11962 34.5049 5.47547 35.0459 5.92898 35.4479C6.34678 35.8182 6.84365 36.0656 7.35584 36.0612L10.7652 36.0317C10.9263 36.0305 11.058 36.1604 11.0592 36.3219C11.0605 36.4835 10.9309 36.6155 10.7698 36.6168L7.36043 36.6462C6.95704 36.6497 6.56779 36.5397 6.20873 36.3513ZM6.1908 32.2097C8.10085 32.2111 10.5523 32.2118 13.5417 32.2118C16.5311 32.2118 18.9825 32.2111 20.8925 32.2097C20.6889 32.0526 20.5018 31.8854 20.3115 31.7152C20.018 31.4528 19.716 31.1827 19.3318 30.9429C17.884 30.0392 15.7164 29.5873 13.5417 29.5873C11.3669 29.5873 9.1993 30.0392 7.75156 30.9429C7.36735 31.1827 7.06532 31.4528 6.77185 31.7152C6.58151 31.8854 6.39447 32.0526 6.1908 32.2097ZM21.7833 32.5833C18.2348 32.5868 15.5693 32.5833 13.5417 32.5833C11.5141 32.5833 8.83317 32.5868 5.2846 32.5833C5.00593 32.6927 4.57382 32.9939 4.19501 33.0595C4.09575 33.0767 4.02131 33.1291 3.97738 33.1934C3.95907 33.2202 3.94636 33.248 3.93973 33.2749C3.93435 33.2967 3.93309 33.3177 3.9363 33.3364C3.93931 33.3539 3.94865 33.3698 3.96511 33.3811C4.11783 33.486 8.17866 33.5584 11.0592 33.4792C12.1002 33.4505 13.0508 33.4851 13.5417 33.4792C14.0324 33.485 14.9826 33.4505 16.0241 33.4792C18.9047 33.5584 22.9655 33.486 23.1182 33.3811C23.1347 33.3698 23.144 33.3539 23.147 33.3364C23.1502 33.3177 23.149 33.2967 23.1436 33.2749C23.137 33.248 23.1243 33.2202 23.106 33.1935C23.062 33.1291 22.9876 33.0767 22.8883 33.0595C22.5095 32.9939 22.062 32.6927 21.7833 32.5833ZM21.7744 66.4771C21.0592 66.7017 19.9864 66.8745 18.8104 66.9939C16.9939 67.1785 14.9131 67.2405 13.5417 67.1697C12.1702 67.2405 10.0894 67.1785 8.27295 66.9939C7.09691 66.8745 6.02416 66.7017 5.3089 66.4771C5.57417 67.3804 5.83523 68.2847 6.08598 69.1989C6.18115 69.5459 6.30102 69.8252 6.44626 70.0499C6.58472 70.2641 6.74805 70.4292 6.93676 70.557C7.35828 70.8425 8.35591 71.0634 9.49126 71.2107C10.9066 71.3942 12.5164 71.4562 13.5172 71.3858C13.532 71.3846 13.547 71.3845 13.5623 71.3856C14.5628 71.4563 16.1749 71.3945 17.5921 71.2107C18.7274 71.0634 19.7251 70.8425 20.1466 70.557C20.3353 70.4292 20.4986 70.2641 20.6371 70.0499C20.7823 69.8252 20.9022 69.5459 20.9974 69.1989C21.2481 68.2848 21.5092 67.3804 21.7744 66.4771ZM5.10143 65.7733C5.67885 66.0527 6.91833 66.2678 8.33014 66.4112C10.1247 66.5935 12.1784 66.6546 13.5249 66.584C13.5353 66.5834 13.5459 66.5834 13.5565 66.5839C14.903 66.6546 16.9578 66.5935 18.7532 66.4112C20.165 66.2678 21.4045 66.0527 21.9819 65.7733C22.0517 65.5372 22.1217 65.3011 22.1917 65.0647C22.2793 64.7692 22.367 64.4732 22.4544 64.177C22.6466 63.5261 22.8425 62.8575 23.0489 62.1347C23.2474 61.4399 23.4383 60.7547 23.6156 60.0877C24.3209 57.434 24.9012 54.7685 25.1424 52.1199C25.3746 49.5716 25.2937 47.0336 24.7092 44.5285C24.082 44.6324 23.1096 44.7365 21.5616 44.8285C19.786 44.934 17.2345 45.0239 13.5451 45.0797H13.5382C9.84884 45.0239 7.29735 44.934 5.52169 44.8285C3.97395 44.7365 3.00168 44.6324 2.37447 44.5285C0.80317 51.2645 2.87684 58.2647 4.89166 65.0648C4.96169 65.3011 5.03165 65.5373 5.10143 65.7733ZM22.6613 39.2705C22.8224 39.2578 22.9632 39.3785 22.9759 39.5401C22.9885 39.7016 22.8681 39.8429 22.707 39.8555C21.853 39.9237 20.7514 39.9881 19.2567 40.0445C17.7821 40.1002 15.9253 40.1474 13.5451 40.1816H13.5382C11.1581 40.1474 9.30124 40.1002 7.82662 40.0445C6.33196 39.9881 5.23037 39.9237 4.37632 39.8555C4.21521 39.8429 4.09485 39.7016 4.10748 39.5401C4.12011 39.3785 4.26097 39.2578 4.42209 39.2705C5.28998 39.3398 6.38729 39.4043 7.84721 39.4595C9.32642 39.5153 11.1788 39.5625 13.5417 39.5965C15.9045 39.5625 17.7569 39.5153 19.2361 39.4595C20.696 39.4043 21.7934 39.3398 22.6613 39.2705Z" fill="#EDE0D4"/>
<path d="M19.6407 30.445C20.0692 30.7125 20.3894 30.9988 20.7005 31.277C21.2781 31.7935 21.8219 32.2797 22.9867 32.4814C23.2552 32.5278 23.462 32.6777 23.5887 32.8631C23.6463 32.9474 23.6877 33.0401 23.711 33.135C23.7357 33.235 23.7405 33.3372 23.7236 33.435C23.6946 33.6037 23.6052 33.757 23.4477 33.8652C23.3822 33.9102 23.1375 33.9403 22.765 33.959C22.763 33.9721 22.7602 33.9851 22.7564 33.9981C22.5606 34.6668 22.1184 35.3744 21.541 35.8861C21.5026 35.9202 21.4635 35.9534 21.4238 35.9858C21.5326 37.4932 22.4191 38.0599 23.6321 38.8352C23.8311 38.9624 24.0376 39.0944 24.207 39.2066C24.7628 39.5748 25.2034 39.9643 25.5212 40.5189C25.8351 41.0667 26.0183 41.7614 26.0591 42.7386C26.0613 42.7917 26.0648 42.861 26.0682 42.9276C26.1085 43.7288 26.1303 44.1637 25.2812 44.408C25.8781 46.9733 25.9608 49.5688 25.7236 52.1727C25.4784 54.8642 24.8924 57.5592 24.1807 60.2368C23.9937 60.9405 23.8035 61.6242 23.6118 62.2953C23.428 62.9386 23.2243 63.6333 23.015 64.3422C22.9275 64.6384 22.8398 64.9344 22.7523 65.2299C22.3389 66.6252 21.9279 68.0121 21.5602 69.3526C21.4482 69.7609 21.3039 70.0947 21.1267 70.3688C20.9428 70.6534 20.7253 70.873 20.4738 71.0434C19.9723 71.383 18.8829 71.6332 17.6653 71.7911C16.2187 71.9788 14.5731 72.0426 13.5417 71.972C12.5102 72.0426 10.8647 71.9788 9.41804 71.7911C8.20048 71.6332 7.11102 71.383 6.60957 71.0434C6.35801 70.873 6.14058 70.6534 5.95661 70.3688C5.77943 70.0947 5.63512 69.7609 5.52312 69.3526C5.15542 68.0121 4.74449 66.6252 4.3311 65.23C2.29576 58.3606 0.200913 51.2893 1.80236 44.408C0.953001 44.1638 0.974842 43.7289 1.01515 42.9276C1.01851 42.861 1.02199 42.7917 1.02421 42.7386C1.06507 41.7614 1.24822 41.0667 1.56214 40.5189C1.87994 39.9643 2.32058 39.5748 2.87636 39.2066C3.04573 39.0944 3.25226 38.9624 3.4512 38.8352C4.66421 38.0599 5.55077 37.4932 5.65956 35.9858C5.61988 35.9534 5.58078 35.9202 5.54231 35.8861C4.96498 35.3744 4.52271 34.6668 4.32697 33.9981C4.32316 33.9851 4.32031 33.9721 4.31834 33.959C3.94588 33.9403 3.70115 33.9102 3.63564 33.8652C3.47815 33.757 3.38877 33.6037 3.35972 33.435C3.34288 33.3372 3.34766 33.235 3.3723 33.135C3.39569 33.0401 3.43701 32.9473 3.4946 32.8631C3.62129 32.6777 3.8281 32.5278 4.09662 32.4814C5.2614 32.2797 5.80523 31.7935 6.38288 31.277C6.69398 30.9988 7.01414 30.7125 7.44267 30.445C8.98597 29.4817 11.2674 29 13.5417 29C15.8159 29 18.0974 29.4817 19.6407 30.445ZM6.20873 36.3513C5.99259 37.9042 5.03972 38.5135 3.76465 39.3285C3.5966 39.4359 3.42202 39.5475 3.19897 39.6953C2.71236 40.0177 2.33086 40.3512 2.06779 40.8103C1.80082 41.2761 1.64428 41.8856 1.60766 42.7616C1.60432 42.8415 1.60139 42.8996 1.5986 42.9552C1.57107 43.5025 1.55744 43.7734 2.21086 43.9028C2.79827 44.0192 3.79456 44.1388 5.55602 44.2434C7.33678 44.3492 9.88087 44.4392 13.5417 44.4946C17.2025 44.4392 19.7466 44.3492 21.5273 44.2434C23.2888 44.1388 24.2851 44.0192 24.8725 43.9028C25.5259 43.7734 25.5123 43.5025 25.4847 42.9552C25.4819 42.8996 25.479 42.8415 25.4757 42.7616C25.4391 41.8856 25.2825 41.2761 25.0155 40.8103C24.7525 40.3512 24.371 40.0177 23.8844 39.6953C23.6613 39.5475 23.4867 39.4359 23.3187 39.3285C22.0436 38.5135 21.0907 37.9042 20.8746 36.3513C20.5155 36.5397 20.1263 36.6497 19.7229 36.6462L16.3135 36.6168C16.1524 36.6155 16.0228 36.4835 16.0241 36.3219C16.0254 36.1604 16.157 36.0305 16.3181 36.0317L19.7275 36.0612C20.2397 36.0656 20.7366 35.8182 21.1544 35.4479C21.6079 35.0459 21.9637 34.5049 22.1488 33.9785C20.5957 34.0063 17.9684 33.9341 15.9417 33.8783C14.8989 33.8496 14.0016 33.8841 13.5263 33.8783C13.051 33.8841 12.1845 33.8496 11.1417 33.8783C9.11498 33.9341 6.48768 34.0063 4.9345 33.9785C5.11962 34.5049 5.47547 35.0459 5.92898 35.4479C6.34678 35.8182 6.84365 36.0656 7.35584 36.0612L10.7652 36.0317C10.9263 36.0305 11.058 36.1604 11.0592 36.3219C11.0605 36.4835 10.9309 36.6155 10.7698 36.6168L7.36043 36.6462C6.95704 36.6497 6.56779 36.5397 6.20873 36.3513ZM6.1908 32.2097C8.10085 32.2111 10.5523 32.2118 13.5417 32.2118C16.5311 32.2118 18.9825 32.2111 20.8925 32.2097C20.6889 32.0526 20.5018 31.8854 20.3115 31.7152C20.018 31.4528 19.716 31.1827 19.3318 30.9429C17.884 30.0392 15.7164 29.5873 13.5417 29.5873C11.3669 29.5873 9.1993 30.0392 7.75156 30.9429C7.36735 31.1827 7.06532 31.4528 6.77185 31.7152C6.58151 31.8854 6.39447 32.0526 6.1908 32.2097ZM21.7833 32.5833C18.2348 32.5868 15.5693 32.5833 13.5417 32.5833C11.5141 32.5833 8.83317 32.5868 5.2846 32.5833C5.00593 32.6927 4.57382 32.9939 4.19501 33.0595C4.09575 33.0767 4.02131 33.1291 3.97738 33.1934C3.95907 33.2202 3.94636 33.248 3.93973 33.2749C3.93435 33.2967 3.93309 33.3177 3.9363 33.3364C3.93931 33.3539 3.94865 33.3698 3.96511 33.3811C4.11783 33.486 8.17866 33.5584 11.0592 33.4792C12.1002 33.4505 13.0508 33.4851 13.5417 33.4792C14.0324 33.485 14.9826 33.4505 16.0241 33.4792C18.9047 33.5584 22.9655 33.486 23.1182 33.3811C23.1347 33.3698 23.144 33.3539 23.147 33.3364C23.1502 33.3177 23.149 33.2967 23.1436 33.2749C23.137 33.248 23.1243 33.2202 23.106 33.1935C23.062 33.1291 22.9876 33.0767 22.8883 33.0595C22.5095 32.9939 22.062 32.6927 21.7833 32.5833ZM21.7744 66.4771C21.0592 66.7017 19.9864 66.8745 18.8104 66.9939C16.9939 67.1785 14.9131 67.2405 13.5417 67.1697C12.1702 67.2405 10.0894 67.1785 8.27295 66.9939C7.09691 66.8745 6.02416 66.7017 5.3089 66.4771C5.57417 67.3804 5.83523 68.2847 6.08598 69.1989C6.18115 69.5459 6.30102 69.8252 6.44626 70.0499C6.58472 70.2641 6.74805 70.4292 6.93676 70.557C7.35828 70.8425 8.35591 71.0634 9.49126 71.2107C10.9066 71.3942 12.5164 71.4562 13.5172 71.3858C13.532 71.3846 13.547 71.3845 13.5623 71.3856C14.5628 71.4563 16.1749 71.3945 17.5921 71.2107C18.7274 71.0634 19.7251 70.8425 20.1466 70.557C20.3353 70.4292 20.4986 70.2641 20.6371 70.0499C20.7823 69.8252 20.9022 69.5459 20.9974 69.1989C21.2481 68.2848 21.5092 67.3804 21.7744 66.4771ZM5.10143 65.7733C5.67885 66.0527 6.91833 66.2678 8.33014 66.4112C10.1247 66.5935 12.1784 66.6546 13.5249 66.584C13.5353 66.5834 13.5459 66.5834 13.5565 66.5839C14.903 66.6546 16.9578 66.5935 18.7532 66.4112C20.165 66.2678 21.4045 66.0527 21.9819 65.7733C22.0517 65.5372 22.1217 65.3011 22.1917 65.0647C22.2793 64.7692 22.367 64.4732 22.4544 64.177C22.6466 63.5261 22.8425 62.8575 23.0489 62.1347C23.2474 61.4399 23.4383 60.7547 23.6156 60.0877C24.3209 57.434 24.9012 54.7685 25.1424 52.1199C25.3746 49.5716 25.2937 47.0336 24.7092 44.5285C24.082 44.6324 23.1096 44.7365 21.5616 44.8285C19.786 44.934 17.2345 45.0239 13.5451 45.0797H13.5382C9.84884 45.0239 7.29735 44.934 5.52169 44.8285C3.97395 44.7365 3.00168 44.6324 2.37447 44.5285C0.80317 51.2645 2.87684 58.2647 4.89166 65.0648C4.96169 65.3011 5.03165 65.5373 5.10143 65.7733ZM22.6613 39.2705C22.8224 39.2578 22.9632 39.3785 22.9759 39.5401C22.9885 39.7016 22.8681 39.8429 22.707 39.8555C21.853 39.9237 20.7514 39.9881 19.2567 40.0445C17.7821 40.1002 15.9253 40.1474 13.5451 40.1816H13.5382C11.1581 40.1474 9.30124 40.1002 7.82662 40.0445C6.33196 39.9881 5.23037 39.9237 4.37632 39.8555C4.21521 39.8429 4.09485 39.7016 4.10748 39.5401C4.12011 39.3785 4.26097 39.2578 4.42209 39.2705C5.28998 39.3398 6.38729 39.4043 7.84721 39.4595C9.32642 39.5153 11.1788 39.5625 13.5417 39.5965C15.9045 39.5625 17.7569 39.5153 19.2361 39.4595C20.696 39.4043 21.7934 39.3398 22.6613 39.2705Z" stroke="#EDE0D4" stroke-width="0.8" mask="url(#path-2-outside-1_125_137)"/>
<defs>
<filter id="filter0_dd_125_137" x="3.06348" y="0.556641" width="124.111" height="102.697" filterUnits="userSpaceOnUse" color-interpolation-filters="sRGB">
<feFlood flood-opacity="0" result="BackgroundImageFix"/>
<feColorMatrix in="SourceAlpha" type="matrix" values="0 0 0 0 0 0 0 0 0 0 0 0 0 0 0 0 0 0 127 0" result="hardAlpha"/>
<feOffset dx="1" dy="1"/>
<feGaussianBlur stdDeviation="15"/>
<feComposite in2="hardAlpha" operator="out"/>
<feColorMatrix type="matrix" values="0 0 0 0 0.498039 0 0 0 0 0.333333 0 0 0 0 0.223529 0 0 0 0.11 0"/>
<feBlend mode="normal" in2="BackgroundImageFix" result="effect1_dropShadow_125_137"/>
<feColorMatrix in="SourceAlpha" type="matrix" values="0 0 0 0 0 0 0 0 0 0 0 0 0 0 0 0 0 0 127 0" result="hardAlpha"/>
<feOffset dy="4"/>
<feGaussianBlur stdDeviation="10"/>
<feComposite in2="hardAlpha" operator="out"/>
<feColorMatrix type="matrix" values="0 0 0 0 0.498039 0 0 0 0 0.333333 0 0 0 0 0.223529 0 0 0 0.2 0"/>
<feBlend mode="normal" in2="effect1_dropShadow_125_137" result="effect2_dropShadow_125_137"/>
<feBlend mode="normal" in="SourceGraphic" in2="effect2_dropShadow_125_137" result="shape"/>
</filter>
</defs>
</svg>
