<svg width="31" height="43" viewBox="0 0 31 43" fill="none" xmlns="http://www.w3.org/2000/svg">
<path d="M29.5471 21.5249C20.1296 17.8163 16.7565 0.991119 16.7565 0.991119C16.7565 0.991119 13.383 17.8183 3.96582 21.5249C13.3833 25.2334 16.7565 42.0586 16.7565 42.0586C16.7565 42.0586 20.1299 25.2332 29.5471 21.5249Z" fill="#EDE0D4"/>
<path d="M9.87907 7.92824C6.24273 6.4968 4.94016 0 4.94016 0C4.94016 0 3.63659 6.49706 0 7.92824C3.63634 9.35968 4.94016 15.8582 4.94016 15.8582C4.94016 15.8582 6.24248 9.35985 9.87907 7.92824Z" fill="#EDE0D4"/>
<path d="M27.663 25.5002C27.663 25.5002 26.9335 29.1429 24.8955 29.9437C26.9335 30.746 27.663 34.3872 27.663 34.3872C27.663 34.3872 28.3924 30.7462 30.4316 29.9437C28.3937 29.1431 27.663 25.5002 27.663 25.5002Z" fill="#EDE0D4"/>
<path d="M23.0694 33.172C23.0694 33.172 22.34 36.8147 20.3008 37.6155C22.3387 38.4179 23.0694 42.059 23.0694 42.059C23.0694 42.059 23.7989 38.418 25.8369 37.6155C23.7989 36.8131 23.0694 33.172 23.0694 33.172Z" fill="#EDE0D4"/>
</svg>
