<svg width="108" height="183" viewBox="0 0 108 183" fill="none" xmlns="http://www.w3.org/2000/svg">
<mask id="path-1-outside-1_76_311" maskUnits="userSpaceOnUse" x="0" y="0" width="108" height="183" fill="black">
<rect fill="white" width="108" height="183"/>
<path d="M79.7119 7.10182C81.5214 8.23138 82.8733 9.44013 84.187 10.6147C86.6261 12.7957 88.9225 14.8488 93.8409 15.7003C94.9748 15.8966 95.848 16.5293 96.383 17.3122C96.6262 17.668 96.8007 18.0596 96.8994 18.4602C97.0035 18.8825 97.0237 19.3142 96.9525 19.7273C96.8299 20.4396 96.4525 21.0869 95.7875 21.5439C95.5108 21.7339 94.4774 21.8609 92.9047 21.94C92.8963 21.995 92.8843 22.0501 92.8682 22.105C92.0417 24.9286 90.1742 27.9164 87.7364 30.0772C87.5739 30.2211 87.4088 30.3614 87.2413 30.498C87.7006 36.8632 91.4442 39.2562 96.5663 42.5302C97.4063 43.0671 98.2784 43.6246 98.9936 44.0984C101.34 45.6532 103.201 47.2979 104.543 49.6396C105.869 51.9526 106.642 54.8864 106.814 59.0126C106.824 59.2366 106.839 59.5292 106.853 59.8106C107.023 63.1938 107.115 65.0302 103.529 66.0616C106.05 76.894 106.399 87.8536 105.398 98.8486C104.362 110.214 101.888 121.594 98.8826 132.9C98.0928 135.871 97.29 138.758 96.4804 141.593C95.7045 144.309 94.8443 147.242 93.9604 150.235C93.591 151.486 93.2206 152.736 92.8509 153.984C91.1053 159.876 89.37 165.732 87.8174 171.393C87.3445 173.117 86.7351 174.526 85.9869 175.684C85.2101 176.885 84.292 177.813 83.2297 178.532C81.1123 179.966 76.512 181.023 71.3707 181.689C65.2621 182.482 58.3137 182.751 53.9583 182.453C49.6029 182.751 42.6545 182.482 36.546 181.689C31.4047 181.023 26.8044 179.966 24.6869 178.532C23.6247 177.813 22.7066 176.885 21.9297 175.684C21.1816 174.526 20.5722 173.117 20.0993 171.393C18.5466 165.732 16.8114 159.876 15.0659 153.984C6.47147 124.978 -2.37422 95.1187 4.38802 66.0618C0.801542 65.0305 0.893768 63.194 1.06399 59.8106C1.07815 59.5292 1.09287 59.2366 1.10224 59.0126C1.27475 54.8864 2.04812 51.9526 3.37369 49.6396C4.71561 47.2979 6.57627 45.6532 8.9231 44.0984C9.63826 43.6246 10.5104 43.0671 11.3504 42.5302C16.4725 39.2562 20.2161 36.8632 20.6754 30.498C20.5079 30.3614 20.3428 30.2211 20.1803 30.0772C17.7425 27.9164 15.875 24.9286 15.0484 22.105C15.0324 22.0501 15.0203 21.995 15.012 21.94C13.4392 21.8609 12.4059 21.7339 12.1292 21.5439C11.4642 21.087 11.0868 20.4396 10.9641 19.7273C10.893 19.3142 10.9132 18.8825 11.0173 18.4602C11.116 18.0596 11.2905 17.668 11.5337 17.3122C12.0687 16.5293 12.9419 15.8966 14.0758 15.7003C18.9942 14.8488 21.2905 12.7957 23.7297 10.6147C25.0434 9.44013 26.3953 8.23138 28.2048 7.10182C34.7215 3.03395 44.3551 1 53.9583 1C63.5616 1 73.1952 3.03395 79.7119 7.10182ZM22.9943 32.0413C22.0817 38.5988 18.0581 41.1717 12.674 44.6132C11.9644 45.0667 11.2272 45.538 10.2853 46.1619C8.23061 47.5232 6.61969 48.9315 5.50883 50.87C4.38153 52.837 3.72054 55.4107 3.5659 59.1095C3.5518 59.4468 3.53943 59.6925 3.52765 59.9269C3.41138 62.2381 3.35384 63.382 6.11297 63.9285C8.59335 64.4198 12.8003 64.9249 20.2382 65.3668C27.7576 65.8134 38.5003 66.1935 53.9583 66.4272C69.4164 66.1935 80.159 65.8134 87.6785 65.3668C95.1164 64.9249 99.3233 64.4198 101.804 63.9285C104.563 63.382 104.505 62.2381 104.389 59.9269C104.377 59.6925 104.365 59.4468 104.351 59.1095C104.196 55.4107 103.535 52.837 102.408 50.87C101.297 48.9315 99.6861 47.5232 97.6313 46.1619C96.6895 45.538 95.9523 45.0667 95.2427 44.6132C89.8586 41.1717 85.835 38.5988 84.9223 32.0413C83.4062 32.8371 81.7625 33.3017 80.0592 33.287L65.6628 33.1625C64.9825 33.1572 64.4353 32.5998 64.4407 31.9176C64.446 31.2354 65.0019 30.6867 65.6822 30.6921L80.0785 30.8165C82.2413 30.8352 84.3394 29.7904 86.1036 28.2267C88.0186 26.5294 89.5212 24.2447 90.3029 22.0222C83.7444 22.1397 72.6504 21.8345 64.0926 21.5991C59.6892 21.4779 55.9003 21.6234 53.8933 21.5991C51.8863 21.6234 48.2274 21.4779 43.8241 21.5991C35.2662 21.8345 24.1722 22.1397 17.6138 22.0222C18.3955 24.2447 19.8981 26.5294 21.8131 28.2267C23.5773 29.7904 25.6754 30.8352 27.8381 30.8165L42.2345 30.6921C42.9148 30.6867 43.4707 31.2354 43.476 31.9176C43.4813 32.5998 42.9342 33.1572 42.2539 33.1625L27.8575 33.287C26.1542 33.3017 24.5105 32.8371 22.9943 32.0413ZM22.9186 14.5531C30.984 14.559 41.3354 14.5619 53.9583 14.5619C66.5813 14.5619 76.9327 14.559 84.9981 14.5531C84.138 13.8899 83.3483 13.1838 82.5445 12.4651C81.3053 11.3571 80.03 10.2168 78.4076 9.20408C72.2944 5.3881 63.1415 3.48011 53.9583 3.48011C44.7752 3.48011 35.6223 5.3881 29.5091 9.20408C27.8867 10.2168 26.6114 11.3571 25.3722 12.4651C24.5684 13.1838 23.7786 13.8899 22.9186 14.5531ZM88.7595 16.131C73.7754 16.1457 62.52 16.131 53.9583 16.131C45.3966 16.131 34.0763 16.1457 19.0921 16.131C17.9154 16.5929 16.0908 17.8648 14.4912 18.1417C14.0721 18.2142 13.7578 18.4357 13.5722 18.7072C13.4949 18.8203 13.4413 18.9375 13.4133 19.0512C13.3906 19.1432 13.3852 19.2319 13.3988 19.3107C13.4115 19.3846 13.451 19.452 13.5205 19.4997C14.1653 19.9427 31.3125 20.2483 43.476 19.9137C47.8714 19.7928 51.8857 19.9386 53.9583 19.9137C56.0303 19.9385 60.0429 19.7927 64.4407 19.9137C76.6041 20.2483 93.7514 19.9427 94.3962 19.4997C94.4657 19.452 94.5051 19.3846 94.5179 19.3107C94.5314 19.2319 94.5261 19.1432 94.5034 19.0512C94.4754 18.9375 94.4217 18.8203 94.3444 18.7072C94.1589 18.4357 93.8446 18.2142 93.4255 18.1417C91.8259 17.8648 89.9363 16.5929 88.7595 16.131ZM88.722 159.251C85.7017 160.199 81.1719 160.929 76.206 161.433C68.5359 162.212 59.7494 162.474 53.9583 162.175C48.1672 162.474 39.3808 162.212 31.7107 161.433C26.7448 160.929 22.215 160.199 19.1947 159.251C20.3149 163.065 21.4172 166.883 22.476 170.743C22.8779 172.209 23.3841 173.388 23.9973 174.337C24.582 175.242 25.2716 175.938 26.0685 176.478C27.8484 177.684 32.061 178.617 36.8551 179.238C42.8317 180.014 49.6289 180.275 53.8552 179.978C53.9175 179.973 53.981 179.972 54.0453 179.977C58.2704 180.276 65.0774 180.015 71.0616 179.238C75.8557 178.617 80.0682 177.684 81.8482 176.478C82.645 175.938 83.3347 175.242 83.9194 174.337C84.5327 173.388 85.0388 172.209 85.4407 170.743C86.4995 166.883 87.6018 163.065 88.722 159.251ZM18.3187 156.279C20.7569 157.458 25.9907 158.367 31.9522 158.972C39.5298 159.742 48.2019 160 53.8876 159.702C53.9316 159.699 53.9761 159.699 54.0211 159.702C59.7066 160 68.3834 159.742 75.9645 158.972C81.926 158.367 87.1599 157.458 89.598 156.279C89.8927 155.282 90.1881 154.285 90.4839 153.287C90.8536 152.039 91.2239 150.789 91.5934 149.538C92.4049 146.79 93.2318 143.966 94.1037 140.914C94.9418 137.98 95.7476 135.087 96.4962 132.27C99.4747 121.065 101.925 109.81 102.944 98.6258C103.924 87.8654 103.582 77.1484 101.114 66.5704C98.4658 67.0093 94.36 67.449 87.8234 67.8372C80.3256 68.2826 69.5516 68.6625 53.9728 68.8978H53.9438C38.365 68.6625 27.5911 68.2826 20.0933 67.8372C13.5578 67.449 9.45227 67.0094 6.80382 66.5706C0.168869 95.0141 8.92511 124.573 17.4329 153.287C17.7286 154.285 18.024 155.282 18.3187 156.279ZM92.4666 44.368C93.1469 44.3145 93.7417 44.8242 93.7951 45.5064C93.8484 46.1885 93.3402 46.785 92.6598 46.8385C89.0535 47.1264 84.402 47.3981 78.0907 47.6365C71.8639 47.8717 64.0234 48.0707 53.9728 48.2154H53.9438C43.8933 48.0707 36.0528 47.8717 29.826 47.6365C23.5147 47.3981 18.8631 47.1264 15.2568 46.8385C14.5765 46.785 14.0683 46.1885 14.1216 45.5064C14.1749 44.8242 14.7698 44.3145 15.4501 44.368C19.1148 44.6606 23.7483 44.9332 29.913 45.1661C36.1591 45.402 43.981 45.6011 53.9583 45.7447C63.9357 45.6011 71.7576 45.402 78.0037 45.1661C84.1683 44.9332 88.8018 44.6606 92.4666 44.368Z"/>
</mask>
<path d="M79.7119 7.10182C81.5214 8.23138 82.8733 9.44013 84.187 10.6147C86.6261 12.7957 88.9225 14.8488 93.8409 15.7003C94.9748 15.8966 95.848 16.5293 96.383 17.3122C96.6262 17.668 96.8007 18.0596 96.8994 18.4602C97.0035 18.8825 97.0237 19.3142 96.9525 19.7273C96.8299 20.4396 96.4525 21.0869 95.7875 21.5439C95.5108 21.7339 94.4774 21.8609 92.9047 21.94C92.8963 21.995 92.8843 22.0501 92.8682 22.105C92.0417 24.9286 90.1742 27.9164 87.7364 30.0772C87.5739 30.2211 87.4088 30.3614 87.2413 30.498C87.7006 36.8632 91.4442 39.2562 96.5663 42.5302C97.4063 43.0671 98.2784 43.6246 98.9936 44.0984C101.34 45.6532 103.201 47.2979 104.543 49.6396C105.869 51.9526 106.642 54.8864 106.814 59.0126C106.824 59.2366 106.839 59.5292 106.853 59.8106C107.023 63.1938 107.115 65.0302 103.529 66.0616C106.05 76.894 106.399 87.8536 105.398 98.8486C104.362 110.214 101.888 121.594 98.8826 132.9C98.0928 135.871 97.29 138.758 96.4804 141.593C95.7045 144.309 94.8443 147.242 93.9604 150.235C93.591 151.486 93.2206 152.736 92.8509 153.984C91.1053 159.876 89.37 165.732 87.8174 171.393C87.3445 173.117 86.7351 174.526 85.9869 175.684C85.2101 176.885 84.292 177.813 83.2297 178.532C81.1123 179.966 76.512 181.023 71.3707 181.689C65.2621 182.482 58.3137 182.751 53.9583 182.453C49.6029 182.751 42.6545 182.482 36.546 181.689C31.4047 181.023 26.8044 179.966 24.6869 178.532C23.6247 177.813 22.7066 176.885 21.9297 175.684C21.1816 174.526 20.5722 173.117 20.0993 171.393C18.5466 165.732 16.8114 159.876 15.0659 153.984C6.47147 124.978 -2.37422 95.1187 4.38802 66.0618C0.801542 65.0305 0.893768 63.194 1.06399 59.8106C1.07815 59.5292 1.09287 59.2366 1.10224 59.0126C1.27475 54.8864 2.04812 51.9526 3.37369 49.6396C4.71561 47.2979 6.57627 45.6532 8.9231 44.0984C9.63826 43.6246 10.5104 43.0671 11.3504 42.5302C16.4725 39.2562 20.2161 36.8632 20.6754 30.498C20.5079 30.3614 20.3428 30.2211 20.1803 30.0772C17.7425 27.9164 15.875 24.9286 15.0484 22.105C15.0324 22.0501 15.0203 21.995 15.012 21.94C13.4392 21.8609 12.4059 21.7339 12.1292 21.5439C11.4642 21.087 11.0868 20.4396 10.9641 19.7273C10.893 19.3142 10.9132 18.8825 11.0173 18.4602C11.116 18.0596 11.2905 17.668 11.5337 17.3122C12.0687 16.5293 12.9419 15.8966 14.0758 15.7003C18.9942 14.8488 21.2905 12.7957 23.7297 10.6147C25.0434 9.44013 26.3953 8.23138 28.2048 7.10182C34.7215 3.03395 44.3551 1 53.9583 1C63.5616 1 73.1952 3.03395 79.7119 7.10182ZM22.9943 32.0413C22.0817 38.5988 18.0581 41.1717 12.674 44.6132C11.9644 45.0667 11.2272 45.538 10.2853 46.1619C8.23061 47.5232 6.61969 48.9315 5.50883 50.87C4.38153 52.837 3.72054 55.4107 3.5659 59.1095C3.5518 59.4468 3.53943 59.6925 3.52765 59.9269C3.41138 62.2381 3.35384 63.382 6.11297 63.9285C8.59335 64.4198 12.8003 64.9249 20.2382 65.3668C27.7576 65.8134 38.5003 66.1935 53.9583 66.4272C69.4164 66.1935 80.159 65.8134 87.6785 65.3668C95.1164 64.9249 99.3233 64.4198 101.804 63.9285C104.563 63.382 104.505 62.2381 104.389 59.9269C104.377 59.6925 104.365 59.4468 104.351 59.1095C104.196 55.4107 103.535 52.837 102.408 50.87C101.297 48.9315 99.6861 47.5232 97.6313 46.1619C96.6895 45.538 95.9523 45.0667 95.2427 44.6132C89.8586 41.1717 85.835 38.5988 84.9223 32.0413C83.4062 32.8371 81.7625 33.3017 80.0592 33.287L65.6628 33.1625C64.9825 33.1572 64.4353 32.5998 64.4407 31.9176C64.446 31.2354 65.0019 30.6867 65.6822 30.6921L80.0785 30.8165C82.2413 30.8352 84.3394 29.7904 86.1036 28.2267C88.0186 26.5294 89.5212 24.2447 90.3029 22.0222C83.7444 22.1397 72.6504 21.8345 64.0926 21.5991C59.6892 21.4779 55.9003 21.6234 53.8933 21.5991C51.8863 21.6234 48.2274 21.4779 43.8241 21.5991C35.2662 21.8345 24.1722 22.1397 17.6138 22.0222C18.3955 24.2447 19.8981 26.5294 21.8131 28.2267C23.5773 29.7904 25.6754 30.8352 27.8381 30.8165L42.2345 30.6921C42.9148 30.6867 43.4707 31.2354 43.476 31.9176C43.4813 32.5998 42.9342 33.1572 42.2539 33.1625L27.8575 33.287C26.1542 33.3017 24.5105 32.8371 22.9943 32.0413ZM22.9186 14.5531C30.984 14.559 41.3354 14.5619 53.9583 14.5619C66.5813 14.5619 76.9327 14.559 84.9981 14.5531C84.138 13.8899 83.3483 13.1838 82.5445 12.4651C81.3053 11.3571 80.03 10.2168 78.4076 9.20408C72.2944 5.3881 63.1415 3.48011 53.9583 3.48011C44.7752 3.48011 35.6223 5.3881 29.5091 9.20408C27.8867 10.2168 26.6114 11.3571 25.3722 12.4651C24.5684 13.1838 23.7786 13.8899 22.9186 14.5531ZM88.7595 16.131C73.7754 16.1457 62.52 16.131 53.9583 16.131C45.3966 16.131 34.0763 16.1457 19.0921 16.131C17.9154 16.5929 16.0908 17.8648 14.4912 18.1417C14.0721 18.2142 13.7578 18.4357 13.5722 18.7072C13.4949 18.8203 13.4413 18.9375 13.4133 19.0512C13.3906 19.1432 13.3852 19.2319 13.3988 19.3107C13.4115 19.3846 13.451 19.452 13.5205 19.4997C14.1653 19.9427 31.3125 20.2483 43.476 19.9137C47.8714 19.7928 51.8857 19.9386 53.9583 19.9137C56.0303 19.9385 60.0429 19.7927 64.4407 19.9137C76.6041 20.2483 93.7514 19.9427 94.3962 19.4997C94.4657 19.452 94.5051 19.3846 94.5179 19.3107C94.5314 19.2319 94.5261 19.1432 94.5034 19.0512C94.4754 18.9375 94.4217 18.8203 94.3444 18.7072C94.1589 18.4357 93.8446 18.2142 93.4255 18.1417C91.8259 17.8648 89.9363 16.5929 88.7595 16.131ZM88.722 159.251C85.7017 160.199 81.1719 160.929 76.206 161.433C68.5359 162.212 59.7494 162.474 53.9583 162.175C48.1672 162.474 39.3808 162.212 31.7107 161.433C26.7448 160.929 22.215 160.199 19.1947 159.251C20.3149 163.065 21.4172 166.883 22.476 170.743C22.8779 172.209 23.3841 173.388 23.9973 174.337C24.582 175.242 25.2716 175.938 26.0685 176.478C27.8484 177.684 32.061 178.617 36.8551 179.238C42.8317 180.014 49.6289 180.275 53.8552 179.978C53.9175 179.973 53.981 179.972 54.0453 179.977C58.2704 180.276 65.0774 180.015 71.0616 179.238C75.8557 178.617 80.0682 177.684 81.8482 176.478C82.645 175.938 83.3347 175.242 83.9194 174.337C84.5327 173.388 85.0388 172.209 85.4407 170.743C86.4995 166.883 87.6018 163.065 88.722 159.251ZM18.3187 156.279C20.7569 157.458 25.9907 158.367 31.9522 158.972C39.5298 159.742 48.2019 160 53.8876 159.702C53.9316 159.699 53.9761 159.699 54.0211 159.702C59.7066 160 68.3834 159.742 75.9645 158.972C81.926 158.367 87.1599 157.458 89.598 156.279C89.8927 155.282 90.1881 154.285 90.4839 153.287C90.8536 152.039 91.2239 150.789 91.5934 149.538C92.4049 146.79 93.2318 143.966 94.1037 140.914C94.9418 137.98 95.7476 135.087 96.4962 132.27C99.4747 121.065 101.925 109.81 102.944 98.6258C103.924 87.8654 103.582 77.1484 101.114 66.5704C98.4658 67.0093 94.36 67.449 87.8234 67.8372C80.3256 68.2826 69.5516 68.6625 53.9728 68.8978H53.9438C38.365 68.6625 27.5911 68.2826 20.0933 67.8372C13.5578 67.449 9.45227 67.0094 6.80382 66.5706C0.168869 95.0141 8.92511 124.573 17.4329 153.287C17.7286 154.285 18.024 155.282 18.3187 156.279ZM92.4666 44.368C93.1469 44.3145 93.7417 44.8242 93.7951 45.5064C93.8484 46.1885 93.3402 46.785 92.6598 46.8385C89.0535 47.1264 84.402 47.3981 78.0907 47.6365C71.8639 47.8717 64.0234 48.0707 53.9728 48.2154H53.9438C43.8933 48.0707 36.0528 47.8717 29.826 47.6365C23.5147 47.3981 18.8631 47.1264 15.2568 46.8385C14.5765 46.785 14.0683 46.1885 14.1216 45.5064C14.1749 44.8242 14.7698 44.3145 15.4501 44.368C19.1148 44.6606 23.7483 44.9332 29.913 45.1661C36.1591 45.402 43.981 45.6011 53.9583 45.7447C63.9357 45.6011 71.7576 45.402 78.0037 45.1661C84.1683 44.9332 88.8018 44.6606 92.4666 44.368Z" fill="#93684B"/>
<path d="M79.7119 7.10182C81.5214 8.23138 82.8733 9.44013 84.187 10.6147C86.6261 12.7957 88.9225 14.8488 93.8409 15.7003C94.9748 15.8966 95.848 16.5293 96.383 17.3122C96.6262 17.668 96.8007 18.0596 96.8994 18.4602C97.0035 18.8825 97.0237 19.3142 96.9525 19.7273C96.8299 20.4396 96.4525 21.0869 95.7875 21.5439C95.5108 21.7339 94.4774 21.8609 92.9047 21.94C92.8963 21.995 92.8843 22.0501 92.8682 22.105C92.0417 24.9286 90.1742 27.9164 87.7364 30.0772C87.5739 30.2211 87.4088 30.3614 87.2413 30.498C87.7006 36.8632 91.4442 39.2562 96.5663 42.5302C97.4063 43.0671 98.2784 43.6246 98.9936 44.0984C101.34 45.6532 103.201 47.2979 104.543 49.6396C105.869 51.9526 106.642 54.8864 106.814 59.0126C106.824 59.2366 106.839 59.5292 106.853 59.8106C107.023 63.1938 107.115 65.0302 103.529 66.0616C106.05 76.894 106.399 87.8536 105.398 98.8486C104.362 110.214 101.888 121.594 98.8826 132.9C98.0928 135.871 97.29 138.758 96.4804 141.593C95.7045 144.309 94.8443 147.242 93.9604 150.235C93.591 151.486 93.2206 152.736 92.8509 153.984C91.1053 159.876 89.37 165.732 87.8174 171.393C87.3445 173.117 86.7351 174.526 85.9869 175.684C85.2101 176.885 84.292 177.813 83.2297 178.532C81.1123 179.966 76.512 181.023 71.3707 181.689C65.2621 182.482 58.3137 182.751 53.9583 182.453C49.6029 182.751 42.6545 182.482 36.546 181.689C31.4047 181.023 26.8044 179.966 24.6869 178.532C23.6247 177.813 22.7066 176.885 21.9297 175.684C21.1816 174.526 20.5722 173.117 20.0993 171.393C18.5466 165.732 16.8114 159.876 15.0659 153.984C6.47147 124.978 -2.37422 95.1187 4.38802 66.0618C0.801542 65.0305 0.893768 63.194 1.06399 59.8106C1.07815 59.5292 1.09287 59.2366 1.10224 59.0126C1.27475 54.8864 2.04812 51.9526 3.37369 49.6396C4.71561 47.2979 6.57627 45.6532 8.9231 44.0984C9.63826 43.6246 10.5104 43.0671 11.3504 42.5302C16.4725 39.2562 20.2161 36.8632 20.6754 30.498C20.5079 30.3614 20.3428 30.2211 20.1803 30.0772C17.7425 27.9164 15.875 24.9286 15.0484 22.105C15.0324 22.0501 15.0203 21.995 15.012 21.94C13.4392 21.8609 12.4059 21.7339 12.1292 21.5439C11.4642 21.087 11.0868 20.4396 10.9641 19.7273C10.893 19.3142 10.9132 18.8825 11.0173 18.4602C11.116 18.0596 11.2905 17.668 11.5337 17.3122C12.0687 16.5293 12.9419 15.8966 14.0758 15.7003C18.9942 14.8488 21.2905 12.7957 23.7297 10.6147C25.0434 9.44013 26.3953 8.23138 28.2048 7.10182C34.7215 3.03395 44.3551 1 53.9583 1C63.5616 1 73.1952 3.03395 79.7119 7.10182ZM22.9943 32.0413C22.0817 38.5988 18.0581 41.1717 12.674 44.6132C11.9644 45.0667 11.2272 45.538 10.2853 46.1619C8.23061 47.5232 6.61969 48.9315 5.50883 50.87C4.38153 52.837 3.72054 55.4107 3.5659 59.1095C3.5518 59.4468 3.53943 59.6925 3.52765 59.9269C3.41138 62.2381 3.35384 63.382 6.11297 63.9285C8.59335 64.4198 12.8003 64.9249 20.2382 65.3668C27.7576 65.8134 38.5003 66.1935 53.9583 66.4272C69.4164 66.1935 80.159 65.8134 87.6785 65.3668C95.1164 64.9249 99.3233 64.4198 101.804 63.9285C104.563 63.382 104.505 62.2381 104.389 59.9269C104.377 59.6925 104.365 59.4468 104.351 59.1095C104.196 55.4107 103.535 52.837 102.408 50.87C101.297 48.9315 99.6861 47.5232 97.6313 46.1619C96.6895 45.538 95.9523 45.0667 95.2427 44.6132C89.8586 41.1717 85.835 38.5988 84.9223 32.0413C83.4062 32.8371 81.7625 33.3017 80.0592 33.287L65.6628 33.1625C64.9825 33.1572 64.4353 32.5998 64.4407 31.9176C64.446 31.2354 65.0019 30.6867 65.6822 30.6921L80.0785 30.8165C82.2413 30.8352 84.3394 29.7904 86.1036 28.2267C88.0186 26.5294 89.5212 24.2447 90.3029 22.0222C83.7444 22.1397 72.6504 21.8345 64.0926 21.5991C59.6892 21.4779 55.9003 21.6234 53.8933 21.5991C51.8863 21.6234 48.2274 21.4779 43.8241 21.5991C35.2662 21.8345 24.1722 22.1397 17.6138 22.0222C18.3955 24.2447 19.8981 26.5294 21.8131 28.2267C23.5773 29.7904 25.6754 30.8352 27.8381 30.8165L42.2345 30.6921C42.9148 30.6867 43.4707 31.2354 43.476 31.9176C43.4813 32.5998 42.9342 33.1572 42.2539 33.1625L27.8575 33.287C26.1542 33.3017 24.5105 32.8371 22.9943 32.0413ZM22.9186 14.5531C30.984 14.559 41.3354 14.5619 53.9583 14.5619C66.5813 14.5619 76.9327 14.559 84.9981 14.5531C84.138 13.8899 83.3483 13.1838 82.5445 12.4651C81.3053 11.3571 80.03 10.2168 78.4076 9.20408C72.2944 5.3881 63.1415 3.48011 53.9583 3.48011C44.7752 3.48011 35.6223 5.3881 29.5091 9.20408C27.8867 10.2168 26.6114 11.3571 25.3722 12.4651C24.5684 13.1838 23.7786 13.8899 22.9186 14.5531ZM88.7595 16.131C73.7754 16.1457 62.52 16.131 53.9583 16.131C45.3966 16.131 34.0763 16.1457 19.0921 16.131C17.9154 16.5929 16.0908 17.8648 14.4912 18.1417C14.0721 18.2142 13.7578 18.4357 13.5722 18.7072C13.4949 18.8203 13.4413 18.9375 13.4133 19.0512C13.3906 19.1432 13.3852 19.2319 13.3988 19.3107C13.4115 19.3846 13.451 19.452 13.5205 19.4997C14.1653 19.9427 31.3125 20.2483 43.476 19.9137C47.8714 19.7928 51.8857 19.9386 53.9583 19.9137C56.0303 19.9385 60.0429 19.7927 64.4407 19.9137C76.6041 20.2483 93.7514 19.9427 94.3962 19.4997C94.4657 19.452 94.5051 19.3846 94.5179 19.3107C94.5314 19.2319 94.5261 19.1432 94.5034 19.0512C94.4754 18.9375 94.4217 18.8203 94.3444 18.7072C94.1589 18.4357 93.8446 18.2142 93.4255 18.1417C91.8259 17.8648 89.9363 16.5929 88.7595 16.131ZM88.722 159.251C85.7017 160.199 81.1719 160.929 76.206 161.433C68.5359 162.212 59.7494 162.474 53.9583 162.175C48.1672 162.474 39.3808 162.212 31.7107 161.433C26.7448 160.929 22.215 160.199 19.1947 159.251C20.3149 163.065 21.4172 166.883 22.476 170.743C22.8779 172.209 23.3841 173.388 23.9973 174.337C24.582 175.242 25.2716 175.938 26.0685 176.478C27.8484 177.684 32.061 178.617 36.8551 179.238C42.8317 180.014 49.6289 180.275 53.8552 179.978C53.9175 179.973 53.981 179.972 54.0453 179.977C58.2704 180.276 65.0774 180.015 71.0616 179.238C75.8557 178.617 80.0682 177.684 81.8482 176.478C82.645 175.938 83.3347 175.242 83.9194 174.337C84.5327 173.388 85.0388 172.209 85.4407 170.743C86.4995 166.883 87.6018 163.065 88.722 159.251ZM18.3187 156.279C20.7569 157.458 25.9907 158.367 31.9522 158.972C39.5298 159.742 48.2019 160 53.8876 159.702C53.9316 159.699 53.9761 159.699 54.0211 159.702C59.7066 160 68.3834 159.742 75.9645 158.972C81.926 158.367 87.1599 157.458 89.598 156.279C89.8927 155.282 90.1881 154.285 90.4839 153.287C90.8536 152.039 91.2239 150.789 91.5934 149.538C92.4049 146.79 93.2318 143.966 94.1037 140.914C94.9418 137.98 95.7476 135.087 96.4962 132.27C99.4747 121.065 101.925 109.81 102.944 98.6258C103.924 87.8654 103.582 77.1484 101.114 66.5704C98.4658 67.0093 94.36 67.449 87.8234 67.8372C80.3256 68.2826 69.5516 68.6625 53.9728 68.8978H53.9438C38.365 68.6625 27.5911 68.2826 20.0933 67.8372C13.5578 67.449 9.45227 67.0094 6.80382 66.5706C0.168869 95.0141 8.92511 124.573 17.4329 153.287C17.7286 154.285 18.024 155.282 18.3187 156.279ZM92.4666 44.368C93.1469 44.3145 93.7417 44.8242 93.7951 45.5064C93.8484 46.1885 93.3402 46.785 92.6598 46.8385C89.0535 47.1264 84.402 47.3981 78.0907 47.6365C71.8639 47.8717 64.0234 48.0707 53.9728 48.2154H53.9438C43.8933 48.0707 36.0528 47.8717 29.826 47.6365C23.5147 47.3981 18.8631 47.1264 15.2568 46.8385C14.5765 46.785 14.0683 46.1885 14.1216 45.5064C14.1749 44.8242 14.7698 44.3145 15.4501 44.368C19.1148 44.6606 23.7483 44.9332 29.913 45.1661C36.1591 45.402 43.981 45.6011 53.9583 45.7447C63.9357 45.6011 71.7576 45.402 78.0037 45.1661C84.1683 44.9332 88.8018 44.6606 92.4666 44.368Z" stroke="#93684B" stroke-width="0.8" mask="url(#path-1-outside-1_76_311)"/>
</svg>
