<svg width="32" height="59" viewBox="0 0 32 59" fill="none" xmlns="http://www.w3.org/2000/svg">
<path d="M16.9277 54.4879L20.6441 58.3691V33.1996C19.6583 34.2732 18.364 34.9959 16.9277 35.2481V54.4879Z" fill="#EDE0D4"/>
<path d="M15.7986 7.14368C10.8576 7.14368 6.83789 11.3421 6.83789 16.5021C6.83789 21.662 10.8579 25.8604 15.7986 25.8604C20.7393 25.8604 24.7593 21.662 24.7593 16.5021C24.7593 11.3421 20.7393 7.14368 15.7986 7.14368ZM14.5117 20.3574C14.3176 20.5601 14.0637 20.6615 13.8073 20.6615C13.5534 20.6615 13.297 20.5601 13.1028 20.3574L11.1115 18.2776L12.5203 16.8063L13.8072 18.1503L19.0768 12.6468L20.4856 14.1182L14.5117 20.3574Z" fill="#EDE0D4"/>
<path d="M10.9531 58.3718L14.6694 54.4906V35.2507C13.2332 34.9985 11.9388 34.2732 10.9531 33.2022V58.3718Z" fill="#EDE0D4"/>
<path d="M28.3892 12.0182C28.0705 11.9168 27.8117 11.6751 27.6797 11.3527C27.5478 11.0329 27.5603 10.669 27.7096 10.3596C28.0432 9.67069 28.2099 8.96358 28.2099 8.25388C28.2099 5.65427 26.1862 3.53816 23.6971 3.53816C23.0175 3.53816 22.338 3.71493 21.6808 4.06069C21.3821 4.21926 21.0361 4.22967 20.7299 4.09188C20.4238 3.9567 20.1898 3.68374 20.0927 3.35097C19.5078 1.34666 17.7828 0 15.7989 0C13.815 0 12.09 1.34659 11.505 3.35097C11.408 3.68372 11.1765 3.95409 10.8678 4.09188C10.5616 4.22707 10.2157 4.21927 9.91692 4.06069C9.25726 3.71233 8.57772 3.53816 7.90067 3.53816C5.41152 3.53816 3.38781 5.65427 3.38781 8.25388C3.38781 8.96358 3.55707 9.67328 3.88813 10.3596C4.03749 10.6716 4.04993 11.0329 3.91801 11.3527C3.78857 11.6725 3.5272 11.9168 3.20858 12.0182C1.28943 12.6291 0 14.4307 0 16.5026C0 18.5745 1.28937 20.3761 3.20858 20.987C3.52719 21.0884 3.78607 21.3301 3.91801 21.6525C4.04993 21.9723 4.03749 22.3362 3.88813 22.6456C3.55458 23.3345 3.38781 24.0416 3.38781 24.7513C3.38781 27.3509 5.41152 29.467 7.90067 29.467C8.58021 29.467 9.25975 29.2903 9.91692 28.9445C10.0762 28.8613 10.2505 28.8171 10.4247 28.8171C10.5741 28.8171 10.7259 28.8483 10.8678 28.9107C11.174 29.0459 11.4079 29.3189 11.505 29.6516C12.09 31.6559 13.815 33.0026 15.7989 33.0026C17.7828 33.0026 19.5077 31.656 20.0927 29.6516C20.1898 29.3189 20.4213 29.0485 20.7299 28.9107C21.0386 28.7755 21.3846 28.7859 21.6808 28.9419C22.3405 29.2903 23.02 29.4644 23.6971 29.4644C26.1862 29.4644 28.2099 27.3483 28.2099 24.7487C28.2099 24.039 28.0407 23.3293 27.7096 22.643C27.5602 22.331 27.5478 21.9697 27.6797 21.6499C27.8092 21.3301 28.0705 21.0858 28.3892 20.9844C30.3083 20.3735 31.5977 18.5719 31.5977 16.5C31.5977 14.4281 30.3084 12.6265 28.3892 12.0156L28.3892 12.0182ZM15.7988 27.9412C9.76002 27.9412 4.84609 22.8095 4.84609 16.5024C4.84609 10.1953 9.7597 5.06363 15.7988 5.06363C21.8379 5.06363 26.7515 10.1953 26.7515 16.5024C26.7515 22.8095 21.8379 27.9412 15.7988 27.9412Z" fill="#EDE0D4"/>
</svg>
