<svg width="27" height="46" viewBox="0 0 27 46" fill="none" xmlns="http://www.w3.org/2000/svg">
<path d="M0 0V2.65447C0.000207324 5.59656 0.689078 8.49214 2.00426 11.0791C3.31944 13.6661 5.21941 15.8629 7.5322 17.4705C8.39516 18.0706 9.10405 18.8905 9.59472 19.856C10.0854 20.8215 10.3423 21.9021 10.3423 23C10.3423 24.0979 10.0854 25.1785 9.59472 26.144C9.10405 27.1095 8.39516 27.9293 7.5322 28.5295C5.21941 30.1371 3.31944 32.3339 2.00426 34.9209C0.689078 37.5079 0.000207194 40.4034 0 43.3455V46H26.5716V43.3455C26.5714 40.4034 25.8825 37.5079 24.5674 34.9209C23.2522 32.3339 21.3522 30.1371 19.0394 28.5295C18.1765 27.9293 17.4676 27.1095 16.9769 26.144C16.4862 25.1785 16.2293 24.0979 16.2293 23C16.2293 21.9021 16.4862 20.8215 16.9769 19.856C17.4676 18.8905 18.1765 18.0706 19.0394 17.4705C21.3522 15.8629 23.2522 13.6661 24.5674 11.0791C25.8825 8.49214 26.5714 5.59656 26.5716 2.65447V0H0ZM1.96259 2.09091H24.609V2.65447C24.6086 5.24878 24.0009 7.80202 22.841 10.0831C21.6811 12.3642 20.0056 14.3011 17.9661 15.7186C16.8295 16.5086 15.8958 17.5882 15.2494 18.8596C14.6031 20.131 14.2647 21.5541 14.2647 23C14.2647 24.4459 14.6031 25.869 15.2494 27.1404C15.8958 28.4118 16.8295 29.4914 17.9661 30.2814C20.0056 31.6989 21.6811 33.6358 22.841 35.9169C24.0009 38.198 24.6086 40.7512 24.609 43.3455V43.9091H1.96259V43.3455C1.96302 40.7512 2.57068 38.198 3.73058 35.9169C4.89048 33.6358 6.566 31.6989 8.60549 30.2814C9.74213 29.4914 10.6759 28.4118 11.3222 27.1404C11.9685 25.869 12.307 24.4459 12.307 23C12.307 21.5541 11.9685 20.131 11.3222 18.8596C10.6759 17.5882 9.74213 16.5086 8.60549 15.7186C6.566 14.3011 4.89048 12.3642 3.73058 10.0831C2.57068 7.80202 1.96302 5.24878 1.96259 2.65447V2.09091Z" fill="#EDE0D4"/>
<path d="M4.50488 9.40944H22.0667C20.9829 11.6132 19.3871 13.4842 17.4314 14.844C16.1584 15.7291 15.1126 16.9385 14.3888 18.3626C13.6649 19.7868 13.2858 21.3808 13.2858 23.0003C13.2858 21.3808 12.9067 19.7868 12.1829 18.3626C11.459 16.9385 10.4132 15.7291 9.14018 14.844C7.18453 13.4842 5.58865 11.6132 4.50488 9.40944Z" fill="#EDE0D4"/>
<path d="M7.80469 42.8641L13.286 37.0244L18.7673 42.8641H7.80469Z" fill="#EDE0D4"/>
</svg>
