<svg width="100" height="87" viewBox="0 0 100 87" fill="none" xmlns="http://www.w3.org/2000/svg">
<g filter="url(#filter0_dd_139_762)">
<path d="M29.0391 34.625C29.0391 32.9167 29.5286 31.599 30.5078 30.6719C31.487 29.7344 32.7161 29.2656 34.1953 29.2656C35.5391 29.2656 36.6016 29.599 37.3828 30.2656C38.1641 30.9323 38.5547 31.7292 38.5547 32.6562H37.0391C37.0391 32.1146 36.7839 31.6094 36.2734 31.1406C35.7734 30.6719 35.0859 30.4375 34.2109 30.4375C33.1901 30.4375 32.3099 30.8125 31.5703 31.5625C30.8307 32.3021 30.4609 33.3229 30.4609 34.625C30.4609 35.9479 30.8255 37.0052 31.5547 37.7969C32.2943 38.5885 33.1797 38.9844 34.2109 38.9844C35.1589 38.9844 35.9349 38.6979 36.5391 38.125C37.1432 37.5417 37.4974 36.7865 37.6016 35.8594H33.9609V34.6094H39.0391V35.3594C39.0391 36.7865 38.5911 37.9427 37.6953 38.8281C36.8099 39.7135 35.6432 40.1562 34.1953 40.1562C32.6953 40.1562 31.4609 39.6667 30.4922 38.6875C29.5234 37.7083 29.0391 36.3542 29.0391 34.625ZM41.7734 34.6875H43.6797C44.5339 34.6771 45.2214 34.5156 45.7422 34.2031C46.263 33.8906 46.5234 33.4062 46.5234 32.75C46.5234 32.0312 46.2526 31.5052 45.7109 31.1719C45.1797 30.8385 44.4609 30.6719 43.5547 30.6719H41.7734V34.6875ZM40.4453 40V29.4219H43.5703C44.9349 29.4219 46.0026 29.6979 46.7734 30.25C47.5547 30.8021 47.9453 31.6354 47.9453 32.75C47.9453 34.2917 47.138 35.2812 45.5234 35.7188L47.9453 40H46.3672L44.0547 35.9219C43.9505 35.9323 43.7891 35.9375 43.5703 35.9375H41.7734V40H40.4453ZM48.8828 29.4219H50.4453L53.7578 34.7344L57.0859 29.4219H58.5703L54.4297 35.7656V40H53.1016V35.8125L48.8828 29.4219ZM59.9766 40V29.4219H61.3828L67.1641 38.0312V29.4219H68.4922V40H67.0859L61.3047 31.4062V40H59.9766ZM30.2109 50.9375V44.4219H31.5391V50.9375C31.5391 52.0729 31.7682 52.8646 32.2266 53.3125C32.6849 53.75 33.3307 53.9688 34.1641 53.9688C34.9974 53.9688 35.6432 53.75 36.1016 53.3125C36.5599 52.8646 36.7891 52.0729 36.7891 50.9375V44.4219H38.1172V50.9375C38.1172 52.4062 37.7578 53.4792 37.0391 54.1562C36.3307 54.8229 35.3672 55.1562 34.1484 55.1562C32.9401 55.1562 31.9818 54.8229 31.2734 54.1562C30.5651 53.4792 30.2109 52.4062 30.2109 50.9375ZM41.4766 49.6875H43.3828C44.237 49.6771 44.9245 49.5156 45.4453 49.2031C45.9661 48.8906 46.2266 48.4062 46.2266 47.75C46.2266 47.0312 45.9557 46.5052 45.4141 46.1719C44.8828 45.8385 44.1641 45.6719 43.2578 45.6719H41.4766V49.6875ZM40.1484 55V44.4219H43.2734C44.638 44.4219 45.7057 44.6979 46.4766 45.25C47.2578 45.8021 47.6484 46.6354 47.6484 47.75C47.6484 49.2917 46.8411 50.2812 45.2266 50.7188L47.6484 55H46.0703L43.7578 50.9219C43.6536 50.9323 43.4922 50.9375 43.2734 50.9375H41.4766V55H40.1484ZM49.3672 55V44.4219H50.7734L56.5547 53.0312V44.4219H57.8828V55H56.4766L50.6953 46.4062V55H49.3672ZM59.6016 51.6719H60.9922C60.9922 52.3281 61.2474 52.8802 61.7578 53.3281C62.2682 53.7656 63.0182 53.9844 64.0078 53.9844C64.862 53.9844 65.5234 53.8229 65.9922 53.5C66.4609 53.1667 66.6953 52.7031 66.6953 52.1094C66.6953 51.724 66.5703 51.4115 66.3203 51.1719C66.0807 50.9219 65.763 50.7448 65.3672 50.6406C64.9714 50.526 64.5339 50.4323 64.0547 50.3594C63.5859 50.276 63.112 50.1771 62.6328 50.0625C62.1536 49.9479 61.7161 49.7969 61.3203 49.6094C60.9245 49.4219 60.6016 49.1302 60.3516 48.7344C60.112 48.3281 59.9922 47.8281 59.9922 47.2344C59.9922 46.3698 60.3255 45.6615 60.9922 45.1094C61.6693 44.5469 62.5911 44.2656 63.7578 44.2656C64.5078 44.2656 65.1484 44.3646 65.6797 44.5625C66.2109 44.7604 66.6172 45.0312 66.8984 45.375C67.1797 45.7083 67.3776 46.0677 67.4922 46.4531C67.6172 46.8281 67.6797 47.2344 67.6797 47.6719H66.2891C66.2891 46.1823 65.4453 45.4375 63.7578 45.4375C63.0391 45.4375 62.4661 45.5938 62.0391 45.9062C61.612 46.2083 61.3984 46.651 61.3984 47.2344C61.3984 47.6719 61.5182 48.026 61.7578 48.2969C62.0078 48.5677 62.3307 48.7656 62.7266 48.8906C63.1224 49.0052 63.5599 49.099 64.0391 49.1719C64.5182 49.2448 64.9922 49.3333 65.4609 49.4375C65.9401 49.5417 66.3776 49.6823 66.7734 49.8594C67.1693 50.0365 67.487 50.3125 67.7266 50.6875C67.9766 51.0625 68.1016 51.5365 68.1016 52.1094C68.1016 53.0365 67.7318 53.776 66.9922 54.3281C66.2526 54.8802 65.2578 55.1562 64.0078 55.1562C63.237 55.1562 62.5547 55.0521 61.9609 54.8438C61.3776 54.6354 60.9193 54.3594 60.5859 54.0156C60.2526 53.6719 60.0026 53.3021 59.8359 52.9062C59.6797 52.5104 59.6016 52.099 59.6016 51.6719Z" fill="#EDE0D4"/>
</g>
<mask id="path-2-outside-1_139_762" maskUnits="userSpaceOnUse" x="11" y="28" width="15" height="27" fill="black">
<rect fill="white" x="11" y="28" width="15" height="27"/>
<path d="M22.2183 29.8401C22.4532 29.9957 22.6287 30.1621 22.7993 30.3238C23.1159 30.6241 23.414 30.9068 24.0525 31.024C24.1997 31.0511 24.3131 31.1382 24.3825 31.246C24.4141 31.295 24.4368 31.3489 24.4496 31.404C24.4631 31.4622 24.4657 31.5216 24.4565 31.5785C24.4405 31.6766 24.3916 31.7657 24.3052 31.8286C24.2693 31.8548 24.1352 31.8723 23.931 31.8832C23.9299 31.8907 23.9283 31.8983 23.9262 31.9059C23.8189 32.2947 23.5765 32.706 23.26 33.0035C23.2389 33.0234 23.2175 33.0427 23.1958 33.0615C23.2554 33.9379 23.7414 34.2674 24.4063 34.7182C24.5154 34.7921 24.6286 34.8689 24.7214 34.9341C25.0261 35.1482 25.2676 35.3746 25.4419 35.697C25.6139 36.0155 25.7143 36.4194 25.7367 36.9876C25.7379 37.0184 25.7399 37.0587 25.7417 37.0975C25.7638 37.5633 25.7758 37.8161 25.3103 37.9581C25.6375 39.4496 25.6828 40.9586 25.5528 42.4725C25.4184 44.0374 25.0972 45.6042 24.707 47.1609C24.6045 47.57 24.5003 47.9675 24.3952 48.3577C24.2944 48.7317 24.1828 49.1356 24.068 49.5478C24.0201 49.72 23.972 49.8921 23.924 50.0639C23.6974 50.8751 23.4721 51.6815 23.2705 52.4608C23.2092 52.6982 23.1301 52.8923 23.0329 53.0516C22.9321 53.2171 22.8129 53.3448 22.675 53.4438C22.4001 53.6413 21.8029 53.7867 21.1355 53.8786C20.3425 53.9876 19.4404 54.0248 18.875 53.9837C18.3096 54.0248 17.4076 53.9876 16.6145 53.8786C15.9471 53.7867 15.3499 53.6413 15.075 53.4438C14.9371 53.3448 14.8179 53.2171 14.7171 53.0516C14.62 52.8923 14.5408 52.6982 14.4795 52.4608C14.2779 51.6815 14.0526 50.8751 13.826 50.0639C12.7103 46.0701 11.562 41.9589 12.4398 37.9582C11.9742 37.8162 11.9862 37.5633 12.0083 37.0975C12.0101 37.0587 12.0121 37.0184 12.0133 36.9876C12.0357 36.4194 12.1361 36.0155 12.3082 35.697C12.4824 35.3746 12.7239 35.1482 13.0286 34.9341C13.1214 34.8689 13.2346 34.7921 13.3437 34.7182C14.0086 34.2674 14.4946 33.9379 14.5542 33.0615C14.5325 33.0427 14.5111 33.0234 14.49 33.0035C14.1735 32.706 13.9311 32.2947 13.8238 31.9059C13.8217 31.8983 13.8201 31.8907 13.819 31.8832C13.6148 31.8723 13.4807 31.8548 13.4448 31.8286C13.3585 31.7657 13.3095 31.6766 13.2935 31.5785C13.2843 31.5216 13.2869 31.4622 13.3004 31.404C13.3133 31.3489 13.3359 31.295 13.3675 31.246C13.4369 31.1382 13.5503 31.0511 13.6975 31.024C14.336 30.9068 14.6341 30.6241 14.9507 30.3238C15.1213 30.1621 15.2968 29.9957 15.5317 29.8401C16.3777 29.28 17.6283 29 18.875 29C20.1217 29 21.3723 29.28 22.2183 29.8401ZM14.8553 33.274C14.7368 34.1769 14.2145 34.5311 13.5155 35.005C13.4234 35.0674 13.3277 35.1323 13.2054 35.2182C12.9387 35.4056 12.7295 35.5995 12.5853 35.8664C12.439 36.1373 12.3532 36.4916 12.3331 37.0009C12.3313 37.0474 12.3297 37.0812 12.3281 37.1135C12.313 37.4317 12.3056 37.5892 12.6638 37.6644C12.9858 37.7321 13.5319 37.8016 14.4975 37.8625C15.4737 37.924 16.8682 37.9763 18.875 38.0085C20.8818 37.9763 22.2764 37.924 23.2525 37.8625C24.2181 37.8016 24.7642 37.7321 25.0862 37.6644C25.4444 37.5892 25.437 37.4317 25.4219 37.1135C25.4203 37.0812 25.4187 37.0474 25.4169 37.0009C25.3968 36.4916 25.311 36.1373 25.1647 35.8664C25.0205 35.5995 24.8113 35.4056 24.5446 35.2182C24.4223 35.1323 24.3266 35.0674 24.2345 35.005C23.5355 34.5311 23.0132 34.1769 22.8947 33.274C22.6979 33.3835 22.4845 33.4475 22.2634 33.4455L20.3945 33.4284C20.3061 33.4276 20.2351 33.3509 20.2358 33.2569C20.2365 33.163 20.3087 33.0875 20.397 33.0882L22.2659 33.1053C22.5467 33.1079 22.819 32.9641 23.0481 32.7488C23.2967 32.5151 23.4917 32.2005 23.5932 31.8945C22.7418 31.9107 21.3016 31.8686 20.1906 31.8362C19.619 31.8195 19.1271 31.8396 18.8666 31.8362C18.606 31.8396 18.131 31.8195 17.5594 31.8362C16.4484 31.8686 15.0082 31.9107 14.1568 31.8945C14.2583 32.2005 14.4533 32.5151 14.7019 32.7488C14.931 32.9641 15.2033 33.1079 15.4841 33.1053L17.353 33.0882C17.4413 33.0875 17.5135 33.163 17.5142 33.2569C17.5149 33.3509 17.4439 33.4276 17.3555 33.4284L15.4866 33.4455C15.2655 33.4475 15.0521 33.3835 14.8553 33.274ZM14.8455 30.8661C15.8925 30.8669 17.2363 30.8673 18.875 30.8673C20.5137 30.8673 21.8575 30.8669 22.9045 30.8661C22.7929 30.7748 22.6904 30.6775 22.586 30.5786C22.4252 30.426 22.2596 30.269 22.049 30.1296C21.2554 29.6042 20.0671 29.3415 18.875 29.3415C17.6829 29.3415 16.4946 29.6042 15.701 30.1296C15.4904 30.269 15.3248 30.426 15.164 30.5786C15.0596 30.6775 14.9571 30.7748 14.8455 30.8661ZM23.3929 31.0833C21.4476 31.0854 19.9865 31.0833 18.875 31.0833C17.7635 31.0833 16.2939 31.0854 14.3487 31.0833C14.1959 31.1469 13.9591 31.3221 13.7514 31.3602C13.697 31.3702 13.6562 31.4007 13.6321 31.4381C13.6221 31.4536 13.6151 31.4698 13.6115 31.4854C13.6085 31.4981 13.6078 31.5103 13.6096 31.5211C13.6112 31.5313 13.6164 31.5406 13.6254 31.5472C13.7091 31.6082 15.9351 31.6502 17.5142 31.6042C18.0848 31.5875 18.6059 31.6076 18.875 31.6042C19.144 31.6076 19.6649 31.5875 20.2358 31.6042C21.8149 31.6502 24.0409 31.6082 24.1246 31.5472C24.1336 31.5406 24.1387 31.5313 24.1404 31.5211C24.1422 31.5103 24.1415 31.4981 24.1385 31.4854C24.1349 31.4698 24.1279 31.4536 24.1179 31.4381C24.0938 31.4007 24.053 31.3702 23.9986 31.3602C23.7909 31.3221 23.5456 31.1469 23.3929 31.0833ZM23.388 50.789C22.9959 50.9196 22.4078 51.0201 21.7632 51.0895C20.7674 51.1968 19.6268 51.2329 18.875 51.1917C18.1232 51.2329 16.9826 51.1968 15.9868 51.0895C15.3422 51.0201 14.7541 50.9196 14.362 50.789C14.5074 51.3142 14.6505 51.84 14.788 52.3714C14.8402 52.5732 14.9059 52.7356 14.9855 52.8662C15.0614 52.9908 15.1509 53.0867 15.2544 53.161C15.4854 53.327 16.0323 53.4555 16.6547 53.5411C17.4305 53.6478 18.313 53.6838 18.8616 53.6429C18.8697 53.6422 18.8779 53.6421 18.8863 53.6428C19.4348 53.6839 20.3185 53.6479 21.0953 53.5411C21.7177 53.4555 22.2646 53.327 22.4956 53.161C22.5991 53.0867 22.6886 52.9908 22.7645 52.8662C22.8441 52.7356 22.9098 52.5732 22.962 52.3714C23.0995 51.84 23.2426 51.3142 23.388 50.789ZM14.2483 50.3798C14.5648 50.5422 15.2443 50.6673 16.0182 50.7507C17.0019 50.8567 18.1277 50.8922 18.8658 50.8512C18.8715 50.8508 18.8773 50.8508 18.8832 50.8511C19.6212 50.8922 20.7476 50.8567 21.7318 50.7507C22.5057 50.6673 23.1852 50.5422 23.5017 50.3798C23.54 50.2426 23.5783 50.1053 23.6167 49.9679C23.6647 49.796 23.7128 49.624 23.7607 49.4517C23.8661 49.0733 23.9734 48.6846 24.0866 48.2644C24.1954 47.8604 24.3 47.4621 24.3972 47.0742C24.7839 45.5314 25.102 43.9817 25.2342 42.4418C25.3615 40.9602 25.3171 39.4846 24.9967 38.0282C24.6529 38.0886 24.1199 38.1491 23.2713 38.2026C22.298 38.2639 20.8993 38.3162 18.8769 38.3486H18.8731C16.8507 38.3162 15.452 38.2639 14.4787 38.2026C13.6302 38.1492 13.0973 38.0886 12.7534 38.0282C11.8921 41.9445 13.0288 46.0143 14.1333 49.9679C14.1717 50.1053 14.21 50.2426 14.2483 50.3798ZM23.8741 34.9712C23.9624 34.9638 24.0396 35.034 24.0466 35.1279C24.0535 35.2219 23.9875 35.304 23.8992 35.3114C23.431 35.351 22.8272 35.3884 22.0078 35.4212C21.1995 35.4536 20.1816 35.481 18.8769 35.5009H18.8731C17.5684 35.481 16.5505 35.4536 15.7422 35.4212C14.9228 35.3884 14.319 35.351 13.8508 35.3114C13.7625 35.304 13.6965 35.2219 13.7034 35.1279C13.7104 35.034 13.7876 34.9638 13.8759 34.9712C14.3516 35.0115 14.9532 35.049 15.7535 35.0811C16.5643 35.1136 17.5798 35.141 18.875 35.1608C20.1703 35.141 21.1857 35.1136 21.9965 35.0811C22.7968 35.049 23.3984 35.0115 23.8741 34.9712Z"/>
</mask>
<path d="M22.2183 29.8401C22.4532 29.9957 22.6287 30.1621 22.7993 30.3238C23.1159 30.6241 23.414 30.9068 24.0525 31.024C24.1997 31.0511 24.3131 31.1382 24.3825 31.246C24.4141 31.295 24.4368 31.3489 24.4496 31.404C24.4631 31.4622 24.4657 31.5216 24.4565 31.5785C24.4405 31.6766 24.3916 31.7657 24.3052 31.8286C24.2693 31.8548 24.1352 31.8723 23.931 31.8832C23.9299 31.8907 23.9283 31.8983 23.9262 31.9059C23.8189 32.2947 23.5765 32.706 23.26 33.0035C23.2389 33.0234 23.2175 33.0427 23.1958 33.0615C23.2554 33.9379 23.7414 34.2674 24.4063 34.7182C24.5154 34.7921 24.6286 34.8689 24.7214 34.9341C25.0261 35.1482 25.2676 35.3746 25.4419 35.697C25.6139 36.0155 25.7143 36.4194 25.7367 36.9876C25.7379 37.0184 25.7399 37.0587 25.7417 37.0975C25.7638 37.5633 25.7758 37.8161 25.3103 37.9581C25.6375 39.4496 25.6828 40.9586 25.5528 42.4725C25.4184 44.0374 25.0972 45.6042 24.707 47.1609C24.6045 47.57 24.5003 47.9675 24.3952 48.3577C24.2944 48.7317 24.1828 49.1356 24.068 49.5478C24.0201 49.72 23.972 49.8921 23.924 50.0639C23.6974 50.8751 23.4721 51.6815 23.2705 52.4608C23.2092 52.6982 23.1301 52.8923 23.0329 53.0516C22.9321 53.2171 22.8129 53.3448 22.675 53.4438C22.4001 53.6413 21.8029 53.7867 21.1355 53.8786C20.3425 53.9876 19.4404 54.0248 18.875 53.9837C18.3096 54.0248 17.4076 53.9876 16.6145 53.8786C15.9471 53.7867 15.3499 53.6413 15.075 53.4438C14.9371 53.3448 14.8179 53.2171 14.7171 53.0516C14.62 52.8923 14.5408 52.6982 14.4795 52.4608C14.2779 51.6815 14.0526 50.8751 13.826 50.0639C12.7103 46.0701 11.562 41.9589 12.4398 37.9582C11.9742 37.8162 11.9862 37.5633 12.0083 37.0975C12.0101 37.0587 12.0121 37.0184 12.0133 36.9876C12.0357 36.4194 12.1361 36.0155 12.3082 35.697C12.4824 35.3746 12.7239 35.1482 13.0286 34.9341C13.1214 34.8689 13.2346 34.7921 13.3437 34.7182C14.0086 34.2674 14.4946 33.9379 14.5542 33.0615C14.5325 33.0427 14.5111 33.0234 14.49 33.0035C14.1735 32.706 13.9311 32.2947 13.8238 31.9059C13.8217 31.8983 13.8201 31.8907 13.819 31.8832C13.6148 31.8723 13.4807 31.8548 13.4448 31.8286C13.3585 31.7657 13.3095 31.6766 13.2935 31.5785C13.2843 31.5216 13.2869 31.4622 13.3004 31.404C13.3133 31.3489 13.3359 31.295 13.3675 31.246C13.4369 31.1382 13.5503 31.0511 13.6975 31.024C14.336 30.9068 14.6341 30.6241 14.9507 30.3238C15.1213 30.1621 15.2968 29.9957 15.5317 29.8401C16.3777 29.28 17.6283 29 18.875 29C20.1217 29 21.3723 29.28 22.2183 29.8401ZM14.8553 33.274C14.7368 34.1769 14.2145 34.5311 13.5155 35.005C13.4234 35.0674 13.3277 35.1323 13.2054 35.2182C12.9387 35.4056 12.7295 35.5995 12.5853 35.8664C12.439 36.1373 12.3532 36.4916 12.3331 37.0009C12.3313 37.0474 12.3297 37.0812 12.3281 37.1135C12.313 37.4317 12.3056 37.5892 12.6638 37.6644C12.9858 37.7321 13.5319 37.8016 14.4975 37.8625C15.4737 37.924 16.8682 37.9763 18.875 38.0085C20.8818 37.9763 22.2764 37.924 23.2525 37.8625C24.2181 37.8016 24.7642 37.7321 25.0862 37.6644C25.4444 37.5892 25.437 37.4317 25.4219 37.1135C25.4203 37.0812 25.4187 37.0474 25.4169 37.0009C25.3968 36.4916 25.311 36.1373 25.1647 35.8664C25.0205 35.5995 24.8113 35.4056 24.5446 35.2182C24.4223 35.1323 24.3266 35.0674 24.2345 35.005C23.5355 34.5311 23.0132 34.1769 22.8947 33.274C22.6979 33.3835 22.4845 33.4475 22.2634 33.4455L20.3945 33.4284C20.3061 33.4276 20.2351 33.3509 20.2358 33.2569C20.2365 33.163 20.3087 33.0875 20.397 33.0882L22.2659 33.1053C22.5467 33.1079 22.819 32.9641 23.0481 32.7488C23.2967 32.5151 23.4917 32.2005 23.5932 31.8945C22.7418 31.9107 21.3016 31.8686 20.1906 31.8362C19.619 31.8195 19.1271 31.8396 18.8666 31.8362C18.606 31.8396 18.131 31.8195 17.5594 31.8362C16.4484 31.8686 15.0082 31.9107 14.1568 31.8945C14.2583 32.2005 14.4533 32.5151 14.7019 32.7488C14.931 32.9641 15.2033 33.1079 15.4841 33.1053L17.353 33.0882C17.4413 33.0875 17.5135 33.163 17.5142 33.2569C17.5149 33.3509 17.4439 33.4276 17.3555 33.4284L15.4866 33.4455C15.2655 33.4475 15.0521 33.3835 14.8553 33.274ZM14.8455 30.8661C15.8925 30.8669 17.2363 30.8673 18.875 30.8673C20.5137 30.8673 21.8575 30.8669 22.9045 30.8661C22.7929 30.7748 22.6904 30.6775 22.586 30.5786C22.4252 30.426 22.2596 30.269 22.049 30.1296C21.2554 29.6042 20.0671 29.3415 18.875 29.3415C17.6829 29.3415 16.4946 29.6042 15.701 30.1296C15.4904 30.269 15.3248 30.426 15.164 30.5786C15.0596 30.6775 14.9571 30.7748 14.8455 30.8661ZM23.3929 31.0833C21.4476 31.0854 19.9865 31.0833 18.875 31.0833C17.7635 31.0833 16.2939 31.0854 14.3487 31.0833C14.1959 31.1469 13.9591 31.3221 13.7514 31.3602C13.697 31.3702 13.6562 31.4007 13.6321 31.4381C13.6221 31.4536 13.6151 31.4698 13.6115 31.4854C13.6085 31.4981 13.6078 31.5103 13.6096 31.5211C13.6112 31.5313 13.6164 31.5406 13.6254 31.5472C13.7091 31.6082 15.9351 31.6502 17.5142 31.6042C18.0848 31.5875 18.6059 31.6076 18.875 31.6042C19.144 31.6076 19.6649 31.5875 20.2358 31.6042C21.8149 31.6502 24.0409 31.6082 24.1246 31.5472C24.1336 31.5406 24.1387 31.5313 24.1404 31.5211C24.1422 31.5103 24.1415 31.4981 24.1385 31.4854C24.1349 31.4698 24.1279 31.4536 24.1179 31.4381C24.0938 31.4007 24.053 31.3702 23.9986 31.3602C23.7909 31.3221 23.5456 31.1469 23.3929 31.0833ZM23.388 50.789C22.9959 50.9196 22.4078 51.0201 21.7632 51.0895C20.7674 51.1968 19.6268 51.2329 18.875 51.1917C18.1232 51.2329 16.9826 51.1968 15.9868 51.0895C15.3422 51.0201 14.7541 50.9196 14.362 50.789C14.5074 51.3142 14.6505 51.84 14.788 52.3714C14.8402 52.5732 14.9059 52.7356 14.9855 52.8662C15.0614 52.9908 15.1509 53.0867 15.2544 53.161C15.4854 53.327 16.0323 53.4555 16.6547 53.5411C17.4305 53.6478 18.313 53.6838 18.8616 53.6429C18.8697 53.6422 18.8779 53.6421 18.8863 53.6428C19.4348 53.6839 20.3185 53.6479 21.0953 53.5411C21.7177 53.4555 22.2646 53.327 22.4956 53.161C22.5991 53.0867 22.6886 52.9908 22.7645 52.8662C22.8441 52.7356 22.9098 52.5732 22.962 52.3714C23.0995 51.84 23.2426 51.3142 23.388 50.789ZM14.2483 50.3798C14.5648 50.5422 15.2443 50.6673 16.0182 50.7507C17.0019 50.8567 18.1277 50.8922 18.8658 50.8512C18.8715 50.8508 18.8773 50.8508 18.8832 50.8511C19.6212 50.8922 20.7476 50.8567 21.7318 50.7507C22.5057 50.6673 23.1852 50.5422 23.5017 50.3798C23.54 50.2426 23.5783 50.1053 23.6167 49.9679C23.6647 49.796 23.7128 49.624 23.7607 49.4517C23.8661 49.0733 23.9734 48.6846 24.0866 48.2644C24.1954 47.8604 24.3 47.4621 24.3972 47.0742C24.7839 45.5314 25.102 43.9817 25.2342 42.4418C25.3615 40.9602 25.3171 39.4846 24.9967 38.0282C24.6529 38.0886 24.1199 38.1491 23.2713 38.2026C22.298 38.2639 20.8993 38.3162 18.8769 38.3486H18.8731C16.8507 38.3162 15.452 38.2639 14.4787 38.2026C13.6302 38.1492 13.0973 38.0886 12.7534 38.0282C11.8921 41.9445 13.0288 46.0143 14.1333 49.9679C14.1717 50.1053 14.21 50.2426 14.2483 50.3798ZM23.8741 34.9712C23.9624 34.9638 24.0396 35.034 24.0466 35.1279C24.0535 35.2219 23.9875 35.304 23.8992 35.3114C23.431 35.351 22.8272 35.3884 22.0078 35.4212C21.1995 35.4536 20.1816 35.481 18.8769 35.5009H18.8731C17.5684 35.481 16.5505 35.4536 15.7422 35.4212C14.9228 35.3884 14.319 35.351 13.8508 35.3114C13.7625 35.304 13.6965 35.2219 13.7034 35.1279C13.7104 35.034 13.7876 34.9638 13.8759 34.9712C14.3516 35.0115 14.9532 35.049 15.7535 35.0811C16.5643 35.1136 17.5798 35.141 18.875 35.1608C20.1703 35.141 21.1857 35.1136 21.9965 35.0811C22.7968 35.049 23.3984 35.0115 23.8741 34.9712Z" fill="#EDE0D4"/>
<path d="M22.2183 29.8401C22.4532 29.9957 22.6287 30.1621 22.7993 30.3238C23.1159 30.6241 23.414 30.9068 24.0525 31.024C24.1997 31.0511 24.3131 31.1382 24.3825 31.246C24.4141 31.295 24.4368 31.3489 24.4496 31.404C24.4631 31.4622 24.4657 31.5216 24.4565 31.5785C24.4405 31.6766 24.3916 31.7657 24.3052 31.8286C24.2693 31.8548 24.1352 31.8723 23.931 31.8832C23.9299 31.8907 23.9283 31.8983 23.9262 31.9059C23.8189 32.2947 23.5765 32.706 23.26 33.0035C23.2389 33.0234 23.2175 33.0427 23.1958 33.0615C23.2554 33.9379 23.7414 34.2674 24.4063 34.7182C24.5154 34.7921 24.6286 34.8689 24.7214 34.9341C25.0261 35.1482 25.2676 35.3746 25.4419 35.697C25.6139 36.0155 25.7143 36.4194 25.7367 36.9876C25.7379 37.0184 25.7399 37.0587 25.7417 37.0975C25.7638 37.5633 25.7758 37.8161 25.3103 37.9581C25.6375 39.4496 25.6828 40.9586 25.5528 42.4725C25.4184 44.0374 25.0972 45.6042 24.707 47.1609C24.6045 47.57 24.5003 47.9675 24.3952 48.3577C24.2944 48.7317 24.1828 49.1356 24.068 49.5478C24.0201 49.72 23.972 49.8921 23.924 50.0639C23.6974 50.8751 23.4721 51.6815 23.2705 52.4608C23.2092 52.6982 23.1301 52.8923 23.0329 53.0516C22.9321 53.2171 22.8129 53.3448 22.675 53.4438C22.4001 53.6413 21.8029 53.7867 21.1355 53.8786C20.3425 53.9876 19.4404 54.0248 18.875 53.9837C18.3096 54.0248 17.4076 53.9876 16.6145 53.8786C15.9471 53.7867 15.3499 53.6413 15.075 53.4438C14.9371 53.3448 14.8179 53.2171 14.7171 53.0516C14.62 52.8923 14.5408 52.6982 14.4795 52.4608C14.2779 51.6815 14.0526 50.8751 13.826 50.0639C12.7103 46.0701 11.562 41.9589 12.4398 37.9582C11.9742 37.8162 11.9862 37.5633 12.0083 37.0975C12.0101 37.0587 12.0121 37.0184 12.0133 36.9876C12.0357 36.4194 12.1361 36.0155 12.3082 35.697C12.4824 35.3746 12.7239 35.1482 13.0286 34.9341C13.1214 34.8689 13.2346 34.7921 13.3437 34.7182C14.0086 34.2674 14.4946 33.9379 14.5542 33.0615C14.5325 33.0427 14.5111 33.0234 14.49 33.0035C14.1735 32.706 13.9311 32.2947 13.8238 31.9059C13.8217 31.8983 13.8201 31.8907 13.819 31.8832C13.6148 31.8723 13.4807 31.8548 13.4448 31.8286C13.3585 31.7657 13.3095 31.6766 13.2935 31.5785C13.2843 31.5216 13.2869 31.4622 13.3004 31.404C13.3133 31.3489 13.3359 31.295 13.3675 31.246C13.4369 31.1382 13.5503 31.0511 13.6975 31.024C14.336 30.9068 14.6341 30.6241 14.9507 30.3238C15.1213 30.1621 15.2968 29.9957 15.5317 29.8401C16.3777 29.28 17.6283 29 18.875 29C20.1217 29 21.3723 29.28 22.2183 29.8401ZM14.8553 33.274C14.7368 34.1769 14.2145 34.5311 13.5155 35.005C13.4234 35.0674 13.3277 35.1323 13.2054 35.2182C12.9387 35.4056 12.7295 35.5995 12.5853 35.8664C12.439 36.1373 12.3532 36.4916 12.3331 37.0009C12.3313 37.0474 12.3297 37.0812 12.3281 37.1135C12.313 37.4317 12.3056 37.5892 12.6638 37.6644C12.9858 37.7321 13.5319 37.8016 14.4975 37.8625C15.4737 37.924 16.8682 37.9763 18.875 38.0085C20.8818 37.9763 22.2764 37.924 23.2525 37.8625C24.2181 37.8016 24.7642 37.7321 25.0862 37.6644C25.4444 37.5892 25.437 37.4317 25.4219 37.1135C25.4203 37.0812 25.4187 37.0474 25.4169 37.0009C25.3968 36.4916 25.311 36.1373 25.1647 35.8664C25.0205 35.5995 24.8113 35.4056 24.5446 35.2182C24.4223 35.1323 24.3266 35.0674 24.2345 35.005C23.5355 34.5311 23.0132 34.1769 22.8947 33.274C22.6979 33.3835 22.4845 33.4475 22.2634 33.4455L20.3945 33.4284C20.3061 33.4276 20.2351 33.3509 20.2358 33.2569C20.2365 33.163 20.3087 33.0875 20.397 33.0882L22.2659 33.1053C22.5467 33.1079 22.819 32.9641 23.0481 32.7488C23.2967 32.5151 23.4917 32.2005 23.5932 31.8945C22.7418 31.9107 21.3016 31.8686 20.1906 31.8362C19.619 31.8195 19.1271 31.8396 18.8666 31.8362C18.606 31.8396 18.131 31.8195 17.5594 31.8362C16.4484 31.8686 15.0082 31.9107 14.1568 31.8945C14.2583 32.2005 14.4533 32.5151 14.7019 32.7488C14.931 32.9641 15.2033 33.1079 15.4841 33.1053L17.353 33.0882C17.4413 33.0875 17.5135 33.163 17.5142 33.2569C17.5149 33.3509 17.4439 33.4276 17.3555 33.4284L15.4866 33.4455C15.2655 33.4475 15.0521 33.3835 14.8553 33.274ZM14.8455 30.8661C15.8925 30.8669 17.2363 30.8673 18.875 30.8673C20.5137 30.8673 21.8575 30.8669 22.9045 30.8661C22.7929 30.7748 22.6904 30.6775 22.586 30.5786C22.4252 30.426 22.2596 30.269 22.049 30.1296C21.2554 29.6042 20.0671 29.3415 18.875 29.3415C17.6829 29.3415 16.4946 29.6042 15.701 30.1296C15.4904 30.269 15.3248 30.426 15.164 30.5786C15.0596 30.6775 14.9571 30.7748 14.8455 30.8661ZM23.3929 31.0833C21.4476 31.0854 19.9865 31.0833 18.875 31.0833C17.7635 31.0833 16.2939 31.0854 14.3487 31.0833C14.1959 31.1469 13.9591 31.3221 13.7514 31.3602C13.697 31.3702 13.6562 31.4007 13.6321 31.4381C13.6221 31.4536 13.6151 31.4698 13.6115 31.4854C13.6085 31.4981 13.6078 31.5103 13.6096 31.5211C13.6112 31.5313 13.6164 31.5406 13.6254 31.5472C13.7091 31.6082 15.9351 31.6502 17.5142 31.6042C18.0848 31.5875 18.6059 31.6076 18.875 31.6042C19.144 31.6076 19.6649 31.5875 20.2358 31.6042C21.8149 31.6502 24.0409 31.6082 24.1246 31.5472C24.1336 31.5406 24.1387 31.5313 24.1404 31.5211C24.1422 31.5103 24.1415 31.4981 24.1385 31.4854C24.1349 31.4698 24.1279 31.4536 24.1179 31.4381C24.0938 31.4007 24.053 31.3702 23.9986 31.3602C23.7909 31.3221 23.5456 31.1469 23.3929 31.0833ZM23.388 50.789C22.9959 50.9196 22.4078 51.0201 21.7632 51.0895C20.7674 51.1968 19.6268 51.2329 18.875 51.1917C18.1232 51.2329 16.9826 51.1968 15.9868 51.0895C15.3422 51.0201 14.7541 50.9196 14.362 50.789C14.5074 51.3142 14.6505 51.84 14.788 52.3714C14.8402 52.5732 14.9059 52.7356 14.9855 52.8662C15.0614 52.9908 15.1509 53.0867 15.2544 53.161C15.4854 53.327 16.0323 53.4555 16.6547 53.5411C17.4305 53.6478 18.313 53.6838 18.8616 53.6429C18.8697 53.6422 18.8779 53.6421 18.8863 53.6428C19.4348 53.6839 20.3185 53.6479 21.0953 53.5411C21.7177 53.4555 22.2646 53.327 22.4956 53.161C22.5991 53.0867 22.6886 52.9908 22.7645 52.8662C22.8441 52.7356 22.9098 52.5732 22.962 52.3714C23.0995 51.84 23.2426 51.3142 23.388 50.789ZM14.2483 50.3798C14.5648 50.5422 15.2443 50.6673 16.0182 50.7507C17.0019 50.8567 18.1277 50.8922 18.8658 50.8512C18.8715 50.8508 18.8773 50.8508 18.8832 50.8511C19.6212 50.8922 20.7476 50.8567 21.7318 50.7507C22.5057 50.6673 23.1852 50.5422 23.5017 50.3798C23.54 50.2426 23.5783 50.1053 23.6167 49.9679C23.6647 49.796 23.7128 49.624 23.7607 49.4517C23.8661 49.0733 23.9734 48.6846 24.0866 48.2644C24.1954 47.8604 24.3 47.4621 24.3972 47.0742C24.7839 45.5314 25.102 43.9817 25.2342 42.4418C25.3615 40.9602 25.3171 39.4846 24.9967 38.0282C24.6529 38.0886 24.1199 38.1491 23.2713 38.2026C22.298 38.2639 20.8993 38.3162 18.8769 38.3486H18.8731C16.8507 38.3162 15.452 38.2639 14.4787 38.2026C13.6302 38.1492 13.0973 38.0886 12.7534 38.0282C11.8921 41.9445 13.0288 46.0143 14.1333 49.9679C14.1717 50.1053 14.21 50.2426 14.2483 50.3798ZM23.8741 34.9712C23.9624 34.9638 24.0396 35.034 24.0466 35.1279C24.0535 35.2219 23.9875 35.304 23.8992 35.3114C23.431 35.351 22.8272 35.3884 22.0078 35.4212C21.1995 35.4536 20.1816 35.481 18.8769 35.5009H18.8731C17.5684 35.481 16.5505 35.4536 15.7422 35.4212C14.9228 35.3884 14.319 35.351 13.8508 35.3114C13.7625 35.304 13.6965 35.2219 13.7034 35.1279C13.7104 35.034 13.7876 34.9638 13.8759 34.9712C14.3516 35.0115 14.9532 35.049 15.7535 35.0811C16.5643 35.1136 17.5798 35.141 18.875 35.1608C20.1703 35.141 21.1857 35.1136 21.9965 35.0811C22.7968 35.049 23.3984 35.0115 23.8741 34.9712Z" stroke="#EDE0D4" stroke-width="0.4" mask="url(#path-2-outside-1_139_762)"/>
<defs>
<filter id="filter0_dd_139_762" x="0.0390625" y="0.265625" width="99.4531" height="85.8906" filterUnits="userSpaceOnUse" color-interpolation-filters="sRGB">
<feFlood flood-opacity="0" result="BackgroundImageFix"/>
<feColorMatrix in="SourceAlpha" type="matrix" values="0 0 0 0 0 0 0 0 0 0 0 0 0 0 0 0 0 0 127 0" result="hardAlpha"/>
<feOffset dx="1" dy="1"/>
<feGaussianBlur stdDeviation="15"/>
<feComposite in2="hardAlpha" operator="out"/>
<feColorMatrix type="matrix" values="0 0 0 0 0.498039 0 0 0 0 0.333333 0 0 0 0 0.223529 0 0 0 0.11 0"/>
<feBlend mode="normal" in2="BackgroundImageFix" result="effect1_dropShadow_139_762"/>
<feColorMatrix in="SourceAlpha" type="matrix" values="0 0 0 0 0 0 0 0 0 0 0 0 0 0 0 0 0 0 127 0" result="hardAlpha"/>
<feOffset dy="4"/>
<feGaussianBlur stdDeviation="10"/>
<feComposite in2="hardAlpha" operator="out"/>
<feColorMatrix type="matrix" values="0 0 0 0 0.498039 0 0 0 0 0.333333 0 0 0 0 0.223529 0 0 0 0.2 0"/>
<feBlend mode="normal" in2="effect1_dropShadow_139_762" result="effect2_dropShadow_139_762"/>
<feBlend mode="normal" in="SourceGraphic" in2="effect2_dropShadow_139_762" result="shape"/>
</filter>
</defs>
</svg>
