<svg width="31" height="31" viewBox="0 0 31 31" fill="none" xmlns="http://www.w3.org/2000/svg">
<path d="M14.7627 17.918V9.43848H16.3398V17.918H14.7627ZM14.4287 21.0166C14.4287 20.6702 14.54 20.3919 14.7627 20.1816C14.9854 19.959 15.2637 19.8477 15.5977 19.8477C15.9316 19.8477 16.21 19.959 16.4326 20.1816C16.6553 20.3919 16.7666 20.6702 16.7666 21.0166C16.7666 21.3753 16.6553 21.6598 16.4326 21.8701C16.21 22.0804 15.9316 22.1855 15.5977 22.1855C15.2637 22.1855 14.9854 22.0804 14.7627 21.8701C14.54 21.6598 14.4287 21.3753 14.4287 21.0166Z" fill="#B85400"/>
<circle cx="15.5" cy="15.5" r="15" stroke="#B85400"/>
</svg>
